<svg xmlns="http://www.w3.org/2000/svg" width="272.009" height="214.368" viewBox="0 0 272.009 214.368">
  <g id="Group_56" data-name="Group 56" transform="translate(-1050.253 -284)">
    <path id="Path_78" data-name="Path 78" d="M1907.8,441.021c39.64-12.27,63.439-17.689,54.2-60.3s-28.283-41.2-28.283-41.2-44.938-1.847-53.074-38.458-121.9,16.445-97.369,62.281,66.111,42.1,66.111,42.1S1868.157,453.291,1907.8,441.021Z" transform="translate(-641.725 -3.012)" fill="#00bcb8"/>
    <g id="Account-amico" transform="translate(1050.253 298.746)">
      <g id="freepik--Floor--inject-2" transform="translate(0 84.227)">
        <path id="freepik--floor--inject-2-2" data-name="freepik--floor--inject-2" d="M51.939,318.148c44.076,22.535,115.539,22.535,159.61,0s44.076-59.093,0-81.6-115.534-22.535-159.61,0S7.868,295.618,51.939,318.148Z" transform="translate(-18.884 -219.654)" fill="#edeaea"/>
      </g>
      <g id="freepik--Shadows--inject-2" transform="translate(37.644 126.786)">
        <path id="freepik--Shadow--inject-2" d="M374.329,325.728c2.418,1.4,7.166.914,10.6-1.073l19.823-11.516c3.441-1.986,4.266-4.727,1.847-6.128s-7.161-.9-10.6,1.083L376.187,319.62C372.745,321.591,371.916,324.333,374.329,325.728Z" transform="translate(-234.771 -305.79)" fill="#ebebeb"/>
        <path id="freepik--shadow--inject-2-2" data-name="freepik--shadow--inject-2" d="M114.861,343.289,94.69,331.645,114.861,320Z" transform="translate(-94.69 -312.73)" fill="#ebebeb"/>
        <path id="freepik--shadow--inject-2-3" data-name="freepik--shadow--inject-2" d="M217.161,342.886,184.65,324.106l32.516-18.746Z" transform="translate(-139.978 -305.36)" fill="#ebebeb"/>
      </g>
      <g id="freepik--Plants--inject-2" transform="translate(1.022 87.265)">
        <g id="freepik--plants--inject-2-2" data-name="freepik--plants--inject-2" transform="translate(0 12.786)">
          <path id="Path_4" data-name="Path 4" d="M50.447,281.588c.06-4.717-3.238-14.535-8.059-20.717s-12.479-10.756-17.941-8.953c-5.115,1.683-4.643,8.367,1.49,12.871s15.344,10.175,17.971,17.877l5.586,9.435Z" transform="translate(-20.942 -251.521)" fill="#01d8d4"/>
          <path id="Path_5" data-name="Path 5" d="M50.447,281.588c.06-4.717-3.238-14.535-8.059-20.717s-12.479-10.756-17.941-8.953c-5.115,1.683-4.643,8.367,1.49,12.871s15.344,10.175,17.971,17.877l5.586,9.435Z" transform="translate(-20.942 -251.521)" opacity="0.1"/>
          <path id="Path_6" data-name="Path 6" d="M56.41,291.277a.343.343,0,0,1-.308-.283c-2.979-16.144-15.841-29.392-23.6-32.377a.348.348,0,1,1,.248-.646c7.91,3.044,21.02,16.511,24.029,32.9a.343.343,0,0,1-.273.4Z" transform="translate(-26.632 -254.75)" fill="#fff"/>
          <path id="Path_7" data-name="Path 7" d="M51.073,318.96c-.725-2.662-3.913-7.076-9.107-10.756-5.75-4.067-13.06-5.994-14.714-9.127-1.986-3.764,1.207-7.26,7.151-6.456s16.313,9.068,17.842,21.313Z" transform="translate(-23.822 -272.153)" fill="#01d8d4"/>
          <path id="Path_8" data-name="Path 8" d="M57.224,319.486a.348.348,0,0,1-.3-.228c-4.772-13.859-15.24-18.83-20.106-19.52a.343.343,0,1,1,.094-.68c5.383.765,15.8,5.83,20.668,19.972a.353.353,0,0,1-.214.442.367.367,0,0,1-.144.015Z" transform="translate(-28.786 -275.45)" fill="#fff"/>
        </g>
        <g id="freepik--plants--inject-2-3" data-name="freepik--plants--inject-2" transform="translate(201.774)">
          <path id="Path_9" data-name="Path 9" d="M431.224,255.183s.66-9.932,6.52-17.331,5.5-10.428,1.46-11.918-13.408,7.424-11.342,19.317S431.224,255.183,431.224,255.183Z" transform="translate(-427.421 -225.772)" fill="#01d8d4"/>
          <path id="Path_10" data-name="Path 10" d="M431.224,255.183s.66-9.932,6.52-17.331,5.5-10.428,1.46-11.918-13.408,7.424-11.342,19.317S431.224,255.183,431.224,255.183Z" transform="translate(-427.421 -225.772)" opacity="0.1"/>
          <path id="Path_11" data-name="Path 11" d="M431.041,251.038a.233.233,0,0,1-.233-.214c-.68-10.954,7.051-19.943,9.931-21.978a.224.224,0,0,1,.318.055.234.234,0,0,1-.055.323c-2.84,1.986-10.428,10.81-9.753,21.571a.233.233,0,0,1-.214.243Z" transform="translate(-429.03 -227.297)" fill="#fff"/>
          <path id="Path_12" data-name="Path 12" d="M429.48,279.634a52.317,52.317,0,0,0,8.084,1.947c4.539.715,6.545-1.455,6.545-1.455s-1.788-4.256-4.365-5.462a25.379,25.379,0,0,1,7.876,3.233s2.771.045,3.873-4.186c0,0-1.639-2.547-7.151-3.923a18.15,18.15,0,0,1,8.184.387c.362.144,1.907-5.323,2.374-7.846s-.546-2.483-2.513-3.024-8.487-1.986-9.718-.909-1.857,4.782-1.857,4.782a8.73,8.73,0,0,1-.184-4.688,7.541,7.541,0,0,0-4.519.109c-2.245.651-2.354,2.18-2.254,3.908a16.82,16.82,0,0,0,.993,4.39s-1.753-2.245-1.808-7.116c0,0-4.6,2.284-5.383,6.853C427.2,269.112,426.6,276.377,429.48,279.634Z" transform="translate(-427.271 -242)" fill="#01d8d4"/>
          <path id="Path_13" data-name="Path 13" d="M433.2,281.476a.263.263,0,0,0,.233-.144c3.66-7.613,17.281-16.457,22.157-17.405a.253.253,0,0,0,.2-.3.263.263,0,0,0-.3-.2c-4.966.968-18.8,9.932-22.52,17.683a.258.258,0,0,0,.119.343A.293.293,0,0,0,433.2,281.476Z" transform="translate(-430.13 -244.726)" fill="#fff"/>
        </g>
      </g>
      <g id="freepik--computer-screen--inject-2" transform="translate(27.558 0)">
        <path id="Path_14" data-name="Path 14" d="M75.869,207.049c-.561,0-.9-.462-.9-1.241V122.278L177.28,63.22v83.192a4.434,4.434,0,0,1-1.986,3.476L76.683,206.8A1.654,1.654,0,0,1,75.869,207.049Z" transform="translate(-74.677 -56.675)" fill="#fafafa"/>
        <path id="Path_15" data-name="Path 15" d="M176.675,63.208V145.9a4.2,4.2,0,0,1-1.862,3.223L76.242,206.029a1.375,1.375,0,0,1-.67.218c-.551,0-.611-.67-.611-.953v-83.36L176.675,63.208m.581-.993L74.38,121.6v83.7c0,.993.5,1.534,1.192,1.534a1.946,1.946,0,0,0,.958-.293l98.576-56.913a4.757,4.757,0,0,0,2.15-3.724V62.2Z" transform="translate(-74.38 -56.161)" fill="#e0e0e0"/>
        <path id="Path_16" data-name="Path 16" d="M74.39,121.6v13.979l102.871-59.4V62.2Z" transform="translate(-74.385 -56.161)" fill="#01d8d4"/>
        <path id="Path_17" data-name="Path 17" d="M90.63,163.666v1.986c0,.407.293.576.646.372L122.9,147.766V144.29L91.276,162.549A1.445,1.445,0,0,0,90.63,163.666Z" transform="translate(-82.561 -97.487)" fill="#fafafa"/>
        <path id="Path_18" data-name="Path 18" d="M159.012,140.259c.358-.209.646-.04.646.372v1.986a1.435,1.435,0,0,1-.646,1.117l-3.392,1.956v-3.476Z" transform="translate(-115.278 -95.413)" fill="#455a64"/>
        <path id="Path_19" data-name="Path 19" d="M74.38,110.97a4.757,4.757,0,0,1,2.15-3.724l98.576-56.913c1.187-.685,2.15-.129,2.15,1.241v4.5L74.38,115.474Z" transform="translate(-74.38 -50.039)" fill="#455a64"/>
        <path id="Path_20" data-name="Path 20" d="M257.513,66a2.22,2.22,0,0,0-.993,1.743c0,.646.452.9.993.586a2.23,2.23,0,0,0,.993-1.748C258.526,65.929,258.074,65.675,257.513,66Z" transform="translate(-166.073 -58.003)" fill="#01d8d4"/>
        <path id="Path_21" data-name="Path 21" d="M263.993,62.279A2.22,2.22,0,0,0,263,64.022c0,.646.452.9.993.586a2.239,2.239,0,0,0,.993-1.748C264.986,62.215,264.529,61.956,263.993,62.279Z" transform="translate(-169.336 -56.131)" fill="#01d8d4"/>
        <path id="Path_22" data-name="Path 22" d="M270.383,58.559a2.22,2.22,0,0,0-.993,1.743c0,.646.452.9.993.586a2.24,2.24,0,0,0,.993-1.748C271.391,58.495,270.939,58.236,270.383,58.559Z" transform="translate(-172.553 -54.258)" fill="#01d8d4"/>
        <g id="Group_1" data-name="Group 1" transform="translate(58.313 17.158)" opacity="0.1">
          <path id="Path_23" data-name="Path 23" d="M214.32,108.367a4.876,4.876,0,0,0-2.2,3.824c0,1.405.993,1.986,2.2,1.271a4.866,4.866,0,0,0,2.2-3.819C216.53,108.238,215.536,107.667,214.32,108.367Z" transform="translate(-202.035 -96.41)"/>
          <path id="Path_24" data-name="Path 24" d="M194.015,120.1a4.866,4.866,0,0,0-2.2,3.819c0,1.405.993,1.986,2.2,1.276a4.876,4.876,0,0,0,2.2-3.824C196.215,119.964,195.231,119.4,194.015,120.1Z" transform="translate(-191.81 -102.316)"/>
          <path id="Path_25" data-name="Path 25" d="M234.63,96.678a4.866,4.866,0,0,0-2.2,3.819c0,1.405.993,1.986,2.2,1.271a4.861,4.861,0,0,0,2.2-3.819C236.835,96.519,235.851,95.948,234.63,96.678Z" transform="translate(-212.259 -90.516)"/>
          <path id="Path_26" data-name="Path 26" d="M254.945,84.894a4.866,4.866,0,0,0-2.2,3.819c0,1.405.993,1.986,2.2,1.271a4.866,4.866,0,0,0,2.2-3.819C257.15,84.759,256.161,84.188,254.945,84.894Z" transform="translate(-222.484 -84.591)"/>
        </g>
        <path id="Path_27" data-name="Path 27" d="M92.82,197.837l23.94-13.825c1.187-.685,2.15-.129,2.15,1.241v22.987a4.757,4.757,0,0,1-2.15,3.724l-23.94,13.82c-1.187.685-2.15.129-2.15-1.241V201.562A4.757,4.757,0,0,1,92.82,197.837Z" transform="translate(-82.581 -117.337)" fill="#e0e0e0"/>
        <path id="Path_28" data-name="Path 28" d="M161.82,142.64,211.974,113.7c1.187-.69,2.15-.134,2.15,1.241v22.982a4.757,4.757,0,0,1-2.15,3.724L161.82,170.587c-1.187.685-2.15.129-2.15-1.241V146.364a4.757,4.757,0,0,1,2.15-3.724Z" transform="translate(-117.317 -81.938)" fill="#e0e0e0"/>
        <path id="Path_29" data-name="Path 29" d="M92.82,259.909l38.058-21.973c1.192-.685,2.155-.2,2.155,1.087a4.613,4.613,0,0,1-2.15,3.57L92.82,264.567c-1.187.685-2.15.2-2.15-1.087A4.613,4.613,0,0,1,92.82,259.909Z" transform="translate(-82.581 -144.474)" fill="#e0e0e0"/>
        <path id="Path_30" data-name="Path 30" d="M92.82,276.329l38.058-21.974c1.192-.685,2.155-.2,2.155,1.087a4.613,4.613,0,0,1-2.15,3.57L92.82,280.987c-1.187.685-2.15.2-2.15-1.088A4.613,4.613,0,0,1,92.82,276.329Z" transform="translate(-82.581 -152.74)" fill="#e0e0e0"/>
        <path id="Path_31" data-name="Path 31" d="M92.82,292.739l38.058-21.974c1.192-.685,2.155-.2,2.155,1.088a4.613,4.613,0,0,1-2.15,3.57L92.82,297.4c-1.187.685-2.15.2-2.15-1.088A4.613,4.613,0,0,1,92.82,292.739Z" transform="translate(-82.581 -161.001)" fill="#e0e0e0"/>
      </g>
      <g id="freepik--Envelope--inject-2" transform="translate(55.799 63.452)">
        <g id="freepik--Letter--inject-2" transform="translate(0 0)">
          <path id="Path_32" data-name="Path 32" d="M131.25,218.464a2.865,2.865,0,0,1,1.291-2.235l66-38.1a2.85,2.85,0,0,1,2.582,0l1.455.839a2.85,2.85,0,0,1,1.286,2.235v50.591a2.86,2.86,0,0,1-1.286,2.235l-65.99,38.1a2.85,2.85,0,0,1-2.582,0l-1.455-.839a2.86,2.86,0,0,1-1.291-2.235Z" transform="translate(-131.25 -177.817)" fill="#01d8d4"/>
          <path id="Path_33" data-name="Path 33" d="M132,217.192l3.665,2.115,68.195-39.379a2.717,2.717,0,0,0-.909-.968l-1.43-.834a2.83,2.83,0,0,0-2.572,0l-66.03,38.1A2.672,2.672,0,0,0,132,217.192Z" transform="translate(-131.628 -177.817)" fill="#fff" opacity="0.4"/>
          <path id="Path_34" data-name="Path 34" d="M131.25,258.381v50.591a2.86,2.86,0,0,0,1.291,2.235l1.455.839a1.9,1.9,0,0,0,.353.159,2.872,2.872,0,0,0,.531.124,3.179,3.179,0,0,0,1.018-.04,1.891,1.891,0,0,0,.253-.065l.154-.06a.785.785,0,0,1-.621,0,.894.894,0,0,1-.392-.849v-50.6a1.137,1.137,0,0,1,.67-1.1l-.67-.387-3.67-2.115A2.642,2.642,0,0,0,131.25,258.381Z" transform="translate(-131.25 -217.735)" opacity="0.1"/>
          <path id="Path_35" data-name="Path 35" d="M139.384,221.308l30.564,11.421a4.966,4.966,0,0,0,5.894-1.942l4.906-7.518,27.073-41.479-26.1,41.762,26.229,10.264a2.666,2.666,0,0,1-.4,1.286l-25.9-11.421-5.721,9.112a4.966,4.966,0,0,1-6.217,1.907l-4.062-1.793-25.882,41.35a.894.894,0,0,1-.392-.849v-.839l26.16-39.691Z" transform="translate(-135.342 -179.817)" opacity="0.2"/>
        </g>
      </g>
      <g id="freepik--mobile-screen--inject-2" transform="translate(114.295 12.717)">
        <path id="Path_36" data-name="Path 36" d="M249.05,109.794V225.944c0,1.371.963,1.927,2.15,1.241l52.18-30.127a4.757,4.757,0,0,0,2.15-3.724V77.184c0-1.371-.963-1.927-2.15-1.241L251.2,106.07a4.747,4.747,0,0,0-2.15,3.724Z" transform="translate(-249.05 -75.649)" fill="#fafafa" stroke="#e0e0e0" stroke-miterlimit="10" stroke-width="1.17"/>
        <path id="Path_37" data-name="Path 37" d="M255.14,144.281a1.187,1.187,0,0,1,.561-.9l5.959-3.431c.308-.179.556-.06.556.263a1.182,1.182,0,0,1-.556.9l-5.959,3.431C255.393,144.723,255.14,144.6,255.14,144.281Z" transform="translate(-252.116 -107.976)" fill="#455a64"/>
        <path id="Path_38" data-name="Path 38" d="M255.14,148.941a1.182,1.182,0,0,1,.561-.9l5.959-3.431c.308-.179.556-.06.556.258a1.182,1.182,0,0,1-.556.909L255.7,149.2C255.393,149.378,255.14,149.263,255.14,148.941Z" transform="translate(-252.116 -110.321)" fill="#455a64"/>
        <path id="Path_39" data-name="Path 39" d="M255.14,153.6a1.182,1.182,0,0,1,.561-.9l5.959-3.431c.308-.179.556-.065.556.258a1.172,1.172,0,0,1-.556.9l-5.959,3.431C255.393,154.056,255.14,153.922,255.14,153.6Z" transform="translate(-252.116 -112.666)" fill="#455a64"/>
        <path id="Path_40" data-name="Path 40" d="M348.366,95.4v-.929a.065.065,0,0,0-.094-.06l-.715.323a.084.084,0,0,1-.119-.055,1.524,1.524,0,0,0-.159-.353.194.194,0,0,1,0-.174l.5-.963a.1.1,0,0,0-.045-.139l-.5-.3a.109.109,0,0,0-.139.035l-.6.894a.184.184,0,0,1-.154.074,1.768,1.768,0,0,0-.387.04.084.084,0,0,1-.109-.074l-.079-.78a.058.058,0,0,0-.094-.05l-.8.462a.213.213,0,0,0-.094.149l-.079.894a.323.323,0,0,1-.084.169,4.471,4.471,0,0,0-.447.5.149.149,0,0,1-.159.045l-.5-.179a.124.124,0,0,0-.144.055l-.591,1.023a.129.129,0,0,0,.025.149l.417.358a.159.159,0,0,1,.04.159,5,5,0,0,0-.189.626.308.308,0,0,1-.1.154l-.735.5a.219.219,0,0,0-.084.159v.924a.06.06,0,0,0,.094.06l.715-.323a.089.089,0,0,1,.119.06,1.524,1.524,0,0,0,.159.353.194.194,0,0,1,0,.174l-.5.958a.114.114,0,0,0,.045.144l.5.3a.109.109,0,0,0,.139-.035l.6-.894a.184.184,0,0,1,.154-.074,1.768,1.768,0,0,0,.387-.04.084.084,0,0,1,.109.074l.079.78c0,.055.045.079.094.05l.8-.462a.228.228,0,0,0,.094-.154l.079-.894a.293.293,0,0,1,.084-.164,4.47,4.47,0,0,0,.447-.5.149.149,0,0,1,.159-.045l.5.179a.124.124,0,0,0,.144-.055l.591-1.023a.129.129,0,0,0-.03-.154L347.3,97a.159.159,0,0,1-.04-.159,5,5,0,0,0,.189-.626.268.268,0,0,1,.1-.154l.735-.5A.228.228,0,0,0,348.366,95.4Zm-3.143,2.93c-.75.437-1.356.084-1.356-.78a2.979,2.979,0,0,1,1.356-2.354c.75-.432,1.356-.079,1.356.785A2.979,2.979,0,0,1,345.222,98.335Z" transform="translate(-295.917 -84.256)" fill="#37474f"/>
        <path id="Path_41" data-name="Path 41" d="M294.729,142.671c6.1-3.521,11.039-.665,11.039,6.376s-4.941,15.6-11.039,19.118-11.039.665-11.039-6.371S288.631,146.192,294.729,142.671Z" transform="translate(-266.489 -108.631)" fill="#455a64"/>
        <path id="Path_42" data-name="Path 42" d="M302.135,154.864c1.986-1.142,3.58-.219,3.58,2.066a7.915,7.915,0,0,1-3.58,6.2c-1.986,1.142-3.585.218-3.585-2.066a7.911,7.911,0,0,1,3.585-6.2Z" transform="translate(-273.969 -115.281)" fill="#01d8d4"/>
        <path id="Path_43" data-name="Path 43" d="M305.98,175.622c0-3.749-2.637-5.274-5.884-3.4l-2.061,1.172a13.039,13.039,0,0,0-5.884,10.195v1.028a6.172,6.172,0,0,0,1.9.293,10,10,0,0,0,4.921-1.49,21.756,21.756,0,0,0,7.012-6.927Z" transform="translate(-270.748 -123.863)" fill="#01d8d4"/>
        <path id="Path_44" data-name="Path 44" d="M284.773,204.808,304.705,193.3c.591-.343,1.073-.1,1.073.546a2.309,2.309,0,0,1-1.073,1.783l-19.928,11.506c-.6.348-1.078.1-1.078-.541A2.3,2.3,0,0,1,284.773,204.808Z" transform="translate(-266.494 -134.8)" fill="#01d8d4"/>
        <path id="Path_45" data-name="Path 45" d="M280.458,218.851l24.2-14.008c.6-.343,1.078-.1,1.078.546a2.3,2.3,0,0,1-1.078,1.783l-24.2,14.008c-.6.343-1.078.1-1.078-.546A2.3,2.3,0,0,1,280.458,218.851Z" transform="translate(-264.319 -140.61)" fill="#455a64"/>
        <path id="Path_46" data-name="Path 46" d="M330.936,223.664l6.778-3.913c.358-.2.646-.109.646.214a1.3,1.3,0,0,1-.646.953l-6.778,3.913c-.353.2-.646.109-.646-.209A1.311,1.311,0,0,1,330.936,223.664Z" transform="translate(-289.948 -148.139)" fill="#37474f"/>
        <path id="Path_47" data-name="Path 47" d="M262.313,256.457l9.956-5.745c.591-.343,1.073-.065,1.073.621v6.833a2.384,2.384,0,0,1-1.073,1.862l-9.956,5.745c-.591.343-1.073.065-1.073-.621v-6.833A2.383,2.383,0,0,1,262.313,256.457Z" transform="translate(-255.187 -163.706)" fill="#01d8d4"/>
        <path id="Path_48" data-name="Path 48" d="M265.946,260.274l6.778-3.913c.358-.2.646-.109.646.209a1.3,1.3,0,0,1-.646.958l-6.778,3.913c-.358.2-.646.109-.646-.209A1.3,1.3,0,0,1,265.946,260.274Z" transform="translate(-257.231 -166.569)" fill="#fafafa"/>
        <path id="Path_49" data-name="Path 49" d="M265.3,266.1v1.986c0,.412.288.576.646.372l6.778-3.913a1.425,1.425,0,0,0,.646-1.117v-1.986c0-.412-.288-.576-.646-.372l-6.778,3.893A1.435,1.435,0,0,0,265.3,266.1Z" transform="translate(-257.231 -168.951)" fill="#fafafa"/>
        <path id="Path_50" data-name="Path 50" d="M294.813,237.7l9.932-5.745c.6-.343,1.078-.065,1.078.621V239.4a2.374,2.374,0,0,1-1.078,1.862l-9.932,5.745c-.6.343-1.073.065-1.073-.621v-6.833A2.369,2.369,0,0,1,294.813,237.7Z" transform="translate(-271.548 -154.261)" fill="#01d8d4"/>
        <path id="Path_51" data-name="Path 51" d="M298.446,241.514l6.778-3.913c.353-.2.641-.109.641.209a1.306,1.306,0,0,1-.641.958l-6.778,3.913c-.358.2-.646.109-.646-.214A1.3,1.3,0,0,1,298.446,241.514Z" transform="translate(-273.592 -157.125)" fill="#fafafa"/>
        <path id="Path_52" data-name="Path 52" d="M297.8,247.342v1.986c0,.412.288.576.646.372l6.778-3.913a1.435,1.435,0,0,0,.641-1.117v-1.986c0-.412-.293-.576-.646-.372l-6.778,3.913A1.425,1.425,0,0,0,297.8,247.342Z" transform="translate(-273.592 -159.507)" fill="#fafafa"/>
        <path id="Path_53" data-name="Path 53" d="M327.308,218.932l9.932-5.75c.591-.343,1.073-.065,1.073.621v6.838a2.384,2.384,0,0,1-1.073,1.862l-9.932,5.745c-.6.343-1.078.065-1.078-.621v-6.833A2.374,2.374,0,0,1,327.308,218.932Z" transform="translate(-287.904 -144.812)" fill="#01d8d4"/>
        <path id="Path_54" data-name="Path 54" d="M330.936,222.776l6.778-3.888c.358-.209.646-.114.646.209a1.281,1.281,0,0,1-.646.953l-6.778,3.913c-.353.209-.646.114-.646-.209A1.3,1.3,0,0,1,330.936,222.776Z" transform="translate(-289.948 -147.703)" fill="#fafafa"/>
        <path id="Path_55" data-name="Path 55" d="M330.29,228.575v1.986c0,.407.293.576.646.372l6.778-3.918a1.42,1.42,0,0,0,.646-1.117v-1.986c0-.412-.288-.581-.646-.372l-6.778,3.913A1.43,1.43,0,0,0,330.29,228.575Z" transform="translate(-289.948 -150.055)" fill="#fafafa"/>
        <path id="Path_56" data-name="Path 56" d="M263.39,270.231,303.464,247.1c1.192-.685,2.15-.2,2.15,1.088a4.6,4.6,0,0,1-2.15,3.57L263.39,274.889c-1.187.685-2.15.2-2.15-1.088A4.613,4.613,0,0,1,263.39,270.231Z" transform="translate(-255.187 -161.803)" fill="#e0e0e0"/>
        <path id="Path_57" data-name="Path 57" d="M263.39,289l40.074-23.136c1.192-.685,2.15-.2,2.15,1.087a4.6,4.6,0,0,1-2.15,3.57l-40.074,23.14c-1.187.685-2.15.2-2.15-1.092A4.613,4.613,0,0,1,263.39,289Z" transform="translate(-255.187 -171.252)" fill="#e0e0e0"/>
        <path id="Path_58" data-name="Path 58" d="M290.748,312.726l13.984-8.074c.6-.343,1.078-.065,1.078.621v4.5a2.373,2.373,0,0,1-1.078,1.862l-13.984,8.074c-.6.343-1.078.065-1.078-.621v-4.5a2.374,2.374,0,0,1,1.078-1.862Z" transform="translate(-269.499 -190.86)" fill="#01d8d4"/>
        <path id="Path_59" data-name="Path 59" d="M266.323,295.25A2.23,2.23,0,0,0,265.33,297c0,.641.452.9.993.581a2.23,2.23,0,0,0,.993-1.748C267.331,295.19,266.879,294.927,266.323,295.25Z" transform="translate(-257.246 -186.132)" fill="#fafafa"/>
        <path id="Path_60" data-name="Path 60" d="M272.763,291.526a2.22,2.22,0,0,0-.993,1.748c0,.641.447.9.993.581a2.23,2.23,0,0,0,.993-1.748C273.771,291.466,273.319,291.193,272.763,291.526Z" transform="translate(-260.488 -184.255)" fill="#fafafa"/>
        <path id="Path_61" data-name="Path 61" d="M279.193,287.844a2.23,2.23,0,0,0-.993,1.748c0,.641.452.9.993.581a2.23,2.23,0,0,0,.993-1.748C280.2,287.76,279.749,287.5,279.193,287.844Z" transform="translate(-263.725 -182.396)" fill="#fafafa"/>
        <path id="Path_62" data-name="Path 62" d="M285.633,284.09a2.225,2.225,0,0,0-.993,1.748c0,.641.452.9.993.581a2.23,2.23,0,0,0,.993-1.748C286.641,284.03,286.189,283.767,285.633,284.09Z" transform="translate(-266.967 -180.514)" fill="#fafafa"/>
        <path id="Path_63" data-name="Path 63" d="M292.063,280.37a2.23,2.23,0,0,0-.993,1.748c0,.641.452.9.993.581a2.23,2.23,0,0,0,.993-1.748C293.071,280.31,292.619,280.047,292.063,280.37Z" transform="translate(-270.204 -178.641)" fill="#fafafa"/>
        <path id="Path_64" data-name="Path 64" d="M298.493,276.65a2.23,2.23,0,0,0-.993,1.748c0,.641.452.9.993.581a2.22,2.22,0,0,0,.993-1.748C299.5,276.59,299.054,276.327,298.493,276.65Z" transform="translate(-273.441 -176.768)" fill="#fafafa"/>
        <path id="Path_65" data-name="Path 65" d="M304.933,272.934a2.23,2.23,0,0,0-.993,1.748c0,.641.452.9.993.581a2.23,2.23,0,0,0,.993-1.748C305.956,272.9,305.489,272.612,304.933,272.934Z" transform="translate(-276.683 -174.9)" fill="#fafafa"/>
        <path id="Path_66" data-name="Path 66" d="M266.323,314.032a2.239,2.239,0,0,0-.993,1.748c0,.646.452.9.993.581a2.22,2.22,0,0,0,.993-1.743C267.331,313.973,266.879,313.715,266.323,314.032Z" transform="translate(-257.246 -195.588)" fill="#fafafa"/>
        <path id="Path_67" data-name="Path 67" d="M272.763,310.312a2.225,2.225,0,0,0-.993,1.748c0,.646.447.9.993.581a2.22,2.22,0,0,0,.993-1.743C273.771,310.253,273.319,309.995,272.763,310.312Z" transform="translate(-260.488 -193.716)" fill="#fafafa"/>
        <path id="Path_68" data-name="Path 68" d="M279.193,306.59a2.24,2.24,0,0,0-.993,1.748c0,.646.452.9.993.581a2.22,2.22,0,0,0,.993-1.743C280.2,306.531,279.749,306.267,279.193,306.59Z" transform="translate(-263.725 -191.841)" fill="#fafafa"/>
        <path id="Path_69" data-name="Path 69" d="M285.633,302.863a2.23,2.23,0,0,0-.993,1.748c0,.646.452.9.993.581a2.22,2.22,0,0,0,.993-1.743C286.641,302.809,286.189,302.545,285.633,302.863Z" transform="translate(-266.967 -189.966)" fill="#fafafa"/>
        <path id="Path_70" data-name="Path 70" d="M292.063,299.15a2.23,2.23,0,0,0-.993,1.748c0,.646.452.9.993.581a2.22,2.22,0,0,0,.993-1.743C293.071,299.091,292.619,298.827,292.063,299.15Z" transform="translate(-270.204 -188.095)" fill="#fafafa"/>
        <path id="Path_71" data-name="Path 71" d="M298.493,295.43a2.23,2.23,0,0,0-.993,1.748c0,.646.452.9.993.581a2.21,2.21,0,0,0,.993-1.748C299.5,295.37,299.054,295.107,298.493,295.43Z" transform="translate(-273.441 -186.222)" fill="#fafafa"/>
        <path id="Path_72" data-name="Path 72" d="M304.933,291.71a2.23,2.23,0,0,0-.993,1.748c0,.646.452.9.993.581a2.225,2.225,0,0,0,.993-1.748C305.956,291.65,305.489,291.387,304.933,291.71Z" transform="translate(-276.683 -184.35)" fill="#fafafa"/>
      </g>
      <g id="freepik--Key--inject-2" transform="translate(176.839 44.344)">
        <path id="Path_73" data-name="Path 73" d="M385.522,293.179a9.659,9.659,0,0,1-4.891-1.291c-3.58-2.071-5.631-6.391-5.631-11.868,0-9.624,6.118-20.692,13.9-25.2,4.206-2.428,8.382-2.691,11.764-.74,3.575,2.066,5.631,6.391,5.631,11.863,0,9.624-6.118,20.7-13.929,25.206A13.854,13.854,0,0,1,385.522,293.179Zm10.259-33.459a7.329,7.329,0,0,0-3.4,1.117c-5.661,3.253-10.428,12.047-10.428,19.183,0,2.89.809,5.085,2.165,5.865,1.544.894,3.695-.079,4.832-.74,5.676-3.272,10.463-12.067,10.463-19.2,0-2.89-.809-5.08-2.165-5.865a2.821,2.821,0,0,0-1.465-.358Z" transform="translate(-375 -196.45)" fill="#455a64"/>
        <path id="Path_74" data-name="Path 74" d="M409.846,274.874c0-5.408-3.407-7.4-3.407-7.4h0c1.356.785,2.165,2.979,2.165,5.865,0,7.136-4.787,15.93-10.463,19.2-1.137.66-3.282,1.634-4.832.74,0,0,2.875,1.788,6.848-.382C405.908,289.761,409.846,282.01,409.846,274.874Z" transform="translate(-384.218 -203.843)" fill="#37474f"/>
        <path id="Path_75" data-name="Path 75" d="M408.346,142.791a3.585,3.585,0,0,0-7.166,0h0v56.962h0a1.792,1.792,0,0,0,1.048,1.49,5.616,5.616,0,0,0,5.065,0,1.788,1.788,0,0,0,1.053-1.49h0V142.8h0Z" transform="translate(-388.18 -139.339)" fill="#37474f"/>
        <path id="Path_76" data-name="Path 76" d="M395.681,168.013a4.578,4.578,0,0,0-2.071-3.585,1.44,1.44,0,0,0-1.49-.129h0l-8.829,5.09-.214.124a.333.333,0,0,0-.089.055,3.105,3.105,0,0,0-.422.343,2.93,2.93,0,0,0,3.451,4.658l.169-.1,8.894-5.12h0a1.455,1.455,0,0,0,.6-1.336Z" transform="translate(-378.376 -151.829)" fill="#455a64"/>
        <path id="Path_77" data-name="Path 77" d="M394.127,196.733a4.578,4.578,0,0,0-2.071-3.58,1.43,1.43,0,0,0-1.49-.134h0l-10.359,5.959-.214.124a.387.387,0,0,0-.089.055,2.83,2.83,0,0,0-.422.343,2.94,2.94,0,0,0,.656,4.658,2.979,2.979,0,0,0,1.4.348,2.92,2.92,0,0,0,1.4-.348c.06-.03.114-.07.169-.1l10.428-5.959h0a1.455,1.455,0,0,0,.6-1.366Z" transform="translate(-376.821 -166.288)" fill="#455a64"/>
      </g>
    </g>
    <ellipse id="Ellipse_1" data-name="Ellipse 1" cx="11.001" cy="10.432" rx="11.001" ry="10.432" transform="translate(1262.582 300.311)" fill="#00bcb8"/>
    <ellipse id="Ellipse_2" data-name="Ellipse 2" cx="5.121" cy="4.931" rx="5.121" ry="4.931" transform="translate(1291.032 284)" fill="#00bcb8"/>
  </g>
</svg>
