<svg xmlns="http://www.w3.org/2000/svg" width="80.187" height="64.869" viewBox="0 0 80.187 64.869">
  <g id="Layer_1-2" transform="translate(17.917 -0.113) rotate(16)">
    <g id="Group_9" data-name="Group 9" transform="translate(0 0)">
      <path id="Path_105" data-name="Path 105" d="M31.241,37.6c.379.681-.052,1.125-.486,1.6-2.743,2.981-5.47,5.974-8.217,8.955-.37.4-.662,1-1.4.843s-.7-.812-.843-1.332c-1.466-5.472-2.974-10.938-4.358-16.428a2.041,2.041,0,0,0-2.095-1.773c-4.109-.5-8.2-1.119-12.293-1.712-.6-.085-1.443.07-1.544-.763-.094-.788.707-.9,1.278-1.138Q20.537,17.821,39.792,9.8,50.965,5.139,62.141.5c.6-.246,1.258-.836,1.926-.243s.068,1.253-.136,1.828c-4.277,12.072-8.6,24.129-12.851,36.211-.467,1.329-1.064,1.427-2.341,1.019-5.023-1.6-10.082-3.1-15.13-4.642-1.79.122-3.3-.776-4.929-1.214-1.829-.493-1.842-.551-2.283,1.171-.765,2.975-1.67,5.916-2.533,9.119,1.829-2.111,3.625-3.9,5.289-5.8.551-.627,1.2-1.287,2.088-.344Z" transform="translate(0.41 0)" fill="#010001"/>
      <path id="Path_106" data-name="Path 106" d="M8,5.049c-.931-.56-1.355.14-1.835.66A83.921,83.921,0,0,1,0,11.966Q.773,9.2,1.544,6.439C2.072,4.544,2.627,2.652,3.1.745c.182-.718.451-.894,1.213-.627,2,.7,4.031,1.338,6.051,2Q9.185,3.581,8,5.049Z" transform="translate(23.649 32.549)" fill="#1fc2bb"/>
      <path id="Path_107" data-name="Path 107" d="M8.571.838c-.032.392-.344.6-.619.843Q4.867,4.327,1.79,6.976c-.435.371-.918.882-1.5.319C-.353,6.678.208,6.2.691,5.784Q3.77,3.133,6.865.494c.347-.3.7-.681,1.258-.392a.7.7,0,0,1,.444.736Z" transform="translate(16.333 52.589)" fill="#040404"/>
      <path id="Path_108" data-name="Path 108" d="M1,7.451c-.5.046-.775-.094-.921-.4-.214-.441.01-.776.347-1.065Q2.746,3.994,5.068,2.006C5.743,1.429,6.4.829,7.095.276A.841.841,0,0,1,8.369.309.752.752,0,0,1,8.226,1.4q-3.39,2.911-6.793,5.81A1.975,1.975,0,0,1,1,7.451Z" transform="translate(3.187 54.794)" fill="#030303"/>
      <path id="Path_109" data-name="Path 109" d="M.912,7.469C.532,7.46.276,7.4.133,7.146A.732.732,0,0,1,.247,6.17Q3.666,3.182,7.121.233A.842.842,0,0,1,8.3.245a.679.679,0,0,1-.019,1.077Q4.852,4.306,1.392,7.256a1.713,1.713,0,0,1-.486.216Z" transform="translate(4.743 43.893)" fill="#030303"/>
      <path id="Path_110" data-name="Path 110" d="M.976,2.121C.318,2.182-.039,1.9,0,1.464A1.691,1.691,0,0,1,1.391.032c.555-.143,1.015.216.934.718A1.907,1.907,0,0,1,.976,2.121Z" transform="translate(13.171 60.71)" fill="#0b0b0b"/>
      <path id="Path_111" data-name="Path 111" d="M2.351.725A1.854,1.854,0,0,1,.827,2.1C.331,2.2-.042,1.975,0,1.443A1.682,1.682,0,0,1,1.453.025c.477-.128.765.246.895.7Z" transform="translate(1.562 51.987)" fill="#090909"/>
      <path id="Path_112" data-name="Path 112" d="M2.318.854A1.894,1.894,0,0,1,.778,2.122c-.493.055-.859-.262-.762-.745A1.74,1.74,0,0,1,1.527.011C2-.071,2.286.3,2.318.854Z" transform="translate(0 62.872)" fill="#060606"/>
      <path id="Path_113" data-name="Path 113" d="M20.951,8.5C24.032,5.572,27.495,3.054,31.078,0c-2.558,7.2-4.961,13.973-7.371,20.741-1.527,4.295-3.087,8.58-4.582,12.887-.266.766-.516,1.1-1.449.8C11.794,32.527,5.892,30.675,0,28.807c.029-.751.687-1.11,1.161-1.56q4.314-4.079,8.664-8.127c2.857-2.661,5.4-5.609,8.408-8.133.519-.435,1-.916,1.556-1.308A8.185,8.185,0,0,0,20.948,8.5Z" transform="translate(31.155 3.152)" fill="#1fc2bb"/>
      <path id="Path_114" data-name="Path 114" d="M37.178,1.633A6.8,6.8,0,0,1,40.352,0c.032.624-.522.766-.84,1.028q-15.283,12.6-30.6,25.16a3.932,3.932,0,0,0-1.4,2.117C6.4,32.406,5.25,36.5,3.992,41.047c-.684-2.54-1.258-4.669-1.832-6.8C1.488,31.755.853,29.255.13,26.776A1.59,1.59,0,0,1,1.038,24.6C8.4,20.412,15.7,16.148,23.02,11.9c1.466-.852,1.482-1.214.156-1.868.013-.049.006-.122.039-.143,4.261-2.807,8.733-5.308,13.12-7.933.266-.158.652-.021.846-.322Z" transform="translate(17.77 4.11)" fill="#1fc2bb"/>
      <path id="Path_115" data-name="Path 115" d="M9.456,21.313,0,20c.191-.554.671-.581,1.015-.724Q23.74,9.8,46.474.344c.34-.143.707-.231,1.06-.344-.019.891-.853,1.086-1.456,1.427C38.368,5.77,30.549,9.934,22.8,14.22c-3.849,2.132-7.747,4.182-11.589,6.327a9.073,9.073,0,0,1-1.754.763Z" transform="translate(4.679 6.601)" fill="#1fc2bb"/>
      <path id="Path_116" data-name="Path 116" d="M0,22.311c2.1-1.694,4.627-2.741,6.985-4.039,9.932-5.478,19.91-10.892,29.862-16.34.447-.246,1.008-.4,1.232-.931C39.039.84,39.606-.41,40.816.138c-2.724,2.041-5.769,3.629-8.684,5.393a29.087,29.087,0,0,1-5.325,3.011c-7.4,4.277-14.826,8.523-22.19,12.857-1.479.87-2.87,1.5-4.611.916Z" transform="translate(14.134 5.602)" fill="#fdfcfc"/>
      <path id="Path_117" data-name="Path 117" d="M22.615.432Q15.139,7.65,7.663,14.868C6.009,16.455,4.3,17.991,2.62,19.552L.029,18.837c-.11-.338.11-.493.308-.657Q11.126,9.306,21.914.438c.2-.164.431-.292.649-.438a.265.265,0,0,1,.052.429Z" transform="translate(28.535 12.407)" fill="#fdfdfd"/>
      <path id="Path_118" data-name="Path 118" d="M.052,1.186C.036,1.043.016.9,0,.757A1.544,1.544,0,0,1,1.008,0C.992.608.516.891.052,1.186Z" transform="translate(51.098 11.653)" fill="#f1e6e6"/>
    </g>
  </g>
</svg>
