<svg id="Layer_1-2" xmlns="http://www.w3.org/2000/svg" width="58.152" height="57.617" viewBox="0 0 58.152 57.617">
  <g id="Group_32" data-name="Group 32" transform="translate(0 0)">
    <g id="Group_10" data-name="Group 10" transform="translate(10.766 7.297)">
      <path id="Path_119" data-name="Path 119" d="M77.738,27.43a15.768,15.768,0,0,1-2.414,6.742A64.366,64.366,0,0,1,62.377,50.263C55.259,56.664,46.81,61.4,38.44,66.088L56.918,47.406,76.971,27.13" transform="translate(-37.695 -26.38)" fill="#00a69c"/>
      <path id="Path_120" data-name="Path 120" d="M75.247,25.653a12.943,12.943,0,0,1-1.617,5.092c-.824,1.588-1.746,3.1-2.713,4.593a63.082,63.082,0,0,1-6.562,8.43A80.569,80.569,0,0,1,47.162,57.4c-3.555,2.19-7.2,4.231-10.841,6.27l.907,1.166,15.034-15.2L67.3,34.43q4.232-4.277,8.46-8.555a.747.747,0,0,0-1.06-1.05q-7.52,7.6-15.04,15.208l-15.037,15.2q-4.227,4.273-8.457,8.549a.748.748,0,0,0,.907,1.166c6.606-3.7,13.243-7.415,19.283-11.994A66.838,66.838,0,0,0,71.638,36.95,57.375,57.375,0,0,0,74.8,31.727a15.09,15.09,0,0,0,1.944-6.074c.06-.953-1.437-.95-1.5,0h0Z" transform="translate(-35.954 -24.604)" fill="#00a69c"/>
    </g>
    <g id="Group_11" data-name="Group 11" transform="translate(3.727 5.157)">
      <path id="Path_121" data-name="Path 121" d="M18.745,22.27,14.93,19.89" transform="translate(-14.187 -19.149)" fill="#fff"/>
      <path id="Path_122" data-name="Path 122" d="M17.385,19.872q-1.909-1.188-3.815-2.38a.744.744,0,1,0-.755,1.282q1.909,1.188,3.815,2.38a.744.744,0,1,0,.755-1.282Z" transform="translate(-12.45 -17.392)" fill="#fff"/>
    </g>
    <g id="Group_12" data-name="Group 12" transform="translate(4.764 5.426)">
      <path id="Path_123" data-name="Path 123" d="M18.4,20.81l3.72,1.122" transform="translate(-17.655 -20.064)" fill="#fff"/>
      <path id="Path_124" data-name="Path 124" d="M16.456,19.758l3.72,1.122a.758.758,0,0,0,.922-.519.768.768,0,0,0-.524-.914l-3.72-1.122a.758.758,0,0,0-.922.519.768.768,0,0,0,.524.914Z" transform="translate(-15.912 -18.297)" fill="#fff"/>
    </g>
    <g id="Group_13" data-name="Group 13" transform="translate(2.772 4.511)">
      <path id="Path_125" data-name="Path 125" d="M11.73,17.69A252.71,252.71,0,0,1,38.123,30.978l-2.7,1.816Q25.808,27.03,16.2,21.266a25.457,25.457,0,0,1,13.572,6.317L20.7,22.978a84.124,84.124,0,0,0,15.923,8.208,4.031,4.031,0,0,0-1.6-.941,1.507,1.507,0,0,0-1.647.588.931.931,0,0,0,.7,1.368c.713-.021.985-1.053.581-1.632a3.048,3.048,0,0,0-1.845-.97,5.168,5.168,0,0,0,4.055,2.677L32.6,29" transform="translate(-10.99 -16.955)" fill="#fff"/>
      <path id="Path_126" data-name="Path 126" d="M9.622,16.589Q20.179,21.156,30.289,26.66q2.884,1.571,5.726,3.217V28.595l-2.7,1.816h.755q-7.479-4.487-14.959-8.97-2.134-1.277-4.265-2.558l-.578,1.356A24.936,24.936,0,0,1,27.51,26.363l.907-1.166-9.068-4.605a.744.744,0,0,0-.755,1.282,84.223,84.223,0,0,0,12.315,6.712q1.878.828,3.788,1.57a.748.748,0,0,0,.728-1.24c-1.015-.849-2.351-1.641-3.675-.923a1.74,1.74,0,0,0-.165,3,1.581,1.581,0,0,0,2.276-1.629c-.081-1.365-1.42-1.929-2.579-2.226a.752.752,0,0,0-.845,1.089,5.976,5.976,0,0,0,4.7,3.045A.748.748,0,0,0,35.671,30L31.4,26.722a.779.779,0,0,0-1.06,0,.745.745,0,0,0,0,1.05l4.271,3.279.53-1.267a4.433,4.433,0,0,1-3.408-2.309l-.845,1.089a5.256,5.256,0,0,1,.9.282,1.623,1.623,0,0,1,.536.389.33.33,0,0,1,.048.249,1.741,1.741,0,0,1-.033.172c-.006.015-.084.16-.039.065.027-.056.042.012-.027.015.036,0,.057-.042.1-.021.081.045-.006.03-.024-.012.015.036-.039-.08-.042-.089s-.015-.134-.021-.1c.024-.142.174-.243.371-.3.632-.166,1.261.356,1.716.739l.728-1.24a83.249,83.249,0,0,1-12.38-6.027q-1.707-1.015-3.366-2.107L18.6,21.868l9.068,4.605c.722.368,1.566-.57.907-1.166a26.276,26.276,0,0,0-13.9-6.507.764.764,0,0,0-.883.43.741.741,0,0,0,.305.926q7.479,4.487,14.959,8.97,2.134,1.277,4.265,2.558a.74.74,0,0,0,.755,0l2.7-1.816a.749.749,0,0,0,0-1.282q-9.946-5.76-20.394-10.6-2.983-1.38-6-2.685a.777.777,0,0,0-1.024.267.742.742,0,0,0,.27,1.015h0Z" transform="translate(-9.26 -15.213)" fill="#fff"/>
    </g>
    <g id="Group_14" data-name="Group 14" transform="translate(4.748 1.89)">
      <path id="Path_127" data-name="Path 127" d="M19.923,9.489l-1.563-.6" transform="translate(-17.611 -8.146)" fill="#fff"/>
      <path id="Path_128" data-name="Path 128" d="M18.368,7.011l-1.563-.6a.771.771,0,0,0-.578.074.763.763,0,0,0-.344.442.75.75,0,0,0,.075.573l.117.151a.75.75,0,0,0,.329.19l1.563.6a.771.771,0,0,0,.578-.074.763.763,0,0,0,.344-.442.75.75,0,0,0-.075-.573L18.7,7.2a.75.75,0,0,0-.329-.19h0Z" transform="translate(-15.858 -6.382)" fill="#fff"/>
    </g>
    <g id="Group_15" data-name="Group 15" transform="translate(6.205 2.733)">
      <path id="Path_129" data-name="Path 129" d="M48.883,22.932Q35.865,17.711,23.2,11.68" transform="translate(-22.459 -10.951)" fill="#fff"/>
      <path id="Path_130" data-name="Path 130" d="M47.35,20.489Q37.27,16.443,27.4,11.91q-2.785-1.282-5.555-2.6a.774.774,0,0,0-1.024.267.743.743,0,0,0,.27,1.015q9.946,4.736,20.116,8.976,2.866,1.2,5.747,2.353a.744.744,0,1,0,.4-1.433h0Z" transform="translate(-20.725 -9.222)" fill="#fff"/>
    </g>
    <g id="Group_16" data-name="Group 16" transform="translate(43.389 40.376)">
      <path id="Path_131" data-name="Path 131" d="M147.41,138.57l2.141,2.9" transform="translate(-146.654 -137.831)" fill="#fff"/>
      <path id="Path_132" data-name="Path 132" d="M144.995,137.191l2.141,2.9a.824.824,0,0,0,.446.341.784.784,0,0,0,.578-.074.748.748,0,0,0,.27-1.015l-2.141-2.9a.824.824,0,0,0-.446-.341.784.784,0,0,0-.578.074.748.748,0,0,0-.27,1.015Z" transform="translate(-144.886 -136.078)" fill="#fff"/>
    </g>
    <g id="Group_17" data-name="Group 17" transform="translate(37.34 27.969)">
      <path id="Path_133" data-name="Path 133" d="M129.456,96.793c-.836-.285-1.686.617-1.7,1.493a4.283,4.283,0,0,0,1.018,2.374,134.883,134.883,0,0,1,11.18,19.285Q134.88,108.47,129.807,97a24.624,24.624,0,0,0,4.3,12.472,50.1,50.1,0,0,1-6.541-11.009,11.9,11.9,0,0,1,3.693,4.68l-2.731-5.368a2.5,2.5,0,0,0,.072,4.466" transform="translate(-126.44 -96.006)" fill="#fff"/>
      <path id="Path_134" data-name="Path 134" d="M127.9,94.34a2.039,2.039,0,0,0-2.243.935,2.739,2.739,0,0,0-.135,2.546,14.178,14.178,0,0,0,1.485,2.389c.527.772,1.087,1.608,1.617,2.421q3.2,4.905,5.969,10.074,1.554,2.9,2.962,5.875a.747.747,0,0,0,1.294-.748q-3.962-8.96-7.927-17.923-1.11-2.51-2.222-5.024c-.3-.677-1.437-.332-1.4.374a25.519,25.519,0,0,0,4.4,12.846l1.177-.9a49.9,49.9,0,0,1-6.424-10.858l-1.177.9a11.628,11.628,0,0,1,3.576,4.528l1.294-.748L127.42,95.66a.762.762,0,0,0-1.024-.267,3.241,3.241,0,0,0,.072,5.748c.851.445,1.608-.834.755-1.282a1.792,1.792,0,0,1-.072-3.187l-1.024-.267,2.731,5.368a.747.747,0,0,0,1.294-.748,12.526,12.526,0,0,0-3.809-4.828.751.751,0,0,0-1.177.9,51.189,51.189,0,0,0,6.657,11.157c.518.662,1.653-.2,1.177-.9a24.069,24.069,0,0,1-4.2-12.1l-1.4.374q3.962,8.96,7.927,17.923,1.11,2.51,2.222,5.024l1.294-.748a135.23,135.23,0,0,0-10.628-18.487,8.4,8.4,0,0,1-1.42-2.386,1.038,1.038,0,0,1,.147-.935.508.508,0,0,1,.554-.252.743.743,0,0,0,.4-1.43Z" transform="translate(-124.689 -94.268)" fill="#fff"/>
    </g>
    <g id="Group_18" data-name="Group 18" transform="translate(42.178 23.922)">
      <path id="Path_135" data-name="Path 135" d="M143.352,83.13a8.4,8.4,0,0,0,1.842,5.685" transform="translate(-142.593 -82.388)" fill="#fff"/>
      <path id="Path_136" data-name="Path 136" d="M140.855,81.372a9.241,9.241,0,0,0,2.06,6.211.746.746,0,0,0,1.06-1.05,7.691,7.691,0,0,1-1.623-5.16.749.749,0,0,0-1.5,0Z" transform="translate(-140.845 -80.63)" fill="#fff"/>
    </g>
    <g id="Group_19" data-name="Group 19" transform="translate(42.392 24.62)">
      <path id="Path_137" data-name="Path 137" d="M144.01,85.46q6.141,13.482,12.282,26.967-5.409-12.254-10.814-24.51" transform="translate(-143.275 -84.724)" fill="#fff"/>
      <path id="Path_138" data-name="Path 138" d="M141.644,84.09q4.789,10.518,9.58,21.033,1.352,2.964,2.7,5.932a.747.747,0,0,0,1.294-.748q-4.214-9.547-8.424-19.095l-2.39-5.415a.747.747,0,0,0-1.294.748q4.214,9.547,8.424,19.095,1.195,2.706,2.39,5.415l1.294-.748q-4.789-10.518-9.58-21.033-1.352-2.964-2.7-5.932a.747.747,0,0,0-1.294.748Z" transform="translate(-141.556 -82.98)" fill="#fff"/>
    </g>
    <path id="Path_139" data-name="Path 139" d="M61.468,14.9a.742.742,0,0,0,0-1.484.742.742,0,0,0,0,1.484Z" transform="translate(-42.555 -9.441)" fill="#00a69c"/>
    <g id="Group_20" data-name="Group 20" transform="translate(12.811 0.396)">
      <path id="Path_140" data-name="Path 140" d="M49.88,8.448a2.4,2.4,0,0,0-.362-2.926A7.159,7.159,0,0,0,46.784,3.89c-.06.451-.509.733-.883.994s-.758.688-.608,1.119a1.158,1.158,0,0,0,.521.534,20.717,20.717,0,0,0,4.8,2.264c-.048-.107-.1-.214-.147-.318" transform="translate(-44.517 -3.135)" fill="#00a69c"/>
      <path id="Path_141" data-name="Path 141" d="M48.788,7.032a3.065,3.065,0,0,0-.216-3.5,7.3,7.3,0,0,0-3.327-2.151.753.753,0,0,0-.922.519.788.788,0,0,1-.033.145c.027-.065.021-.059-.021.018.087-.086-.066.068-.075.077s-.168.148-.09.083c-.072.056-.15.107-.225.16a2.713,2.713,0,0,0-.922.935,1.422,1.422,0,0,0,.018,1.4,2.728,2.728,0,0,0,.97.822,21.774,21.774,0,0,0,4.732,2.187.749.749,0,0,0,.788-.267.769.769,0,0,0,.06-.825c-.048-.107-.1-.214-.147-.318a.747.747,0,0,0-1.294.748c.048.107.1.214.147.318L49.076,6.3a20.053,20.053,0,0,1-4.043-1.834q-.247-.147-.494-.3c-.06-.039-.12-.074-.177-.116s-.042-.03-.006,0a1.029,1.029,0,0,1-.084-.077c-.069-.033.027.086,0,.009-.045-.122.021.065,0,.056q-.049.085.018-.036l.045-.068c-.048.065.087-.089.1-.1a2.068,2.068,0,0,1,.3-.228c.159-.113.317-.228.464-.356a1.721,1.721,0,0,0,.572-.947l-.922.519a6.225,6.225,0,0,1,2.453,1.5.4.4,0,1,0,.024.033c.03.042.06.086.087.128a3.036,3.036,0,0,1,.168.306c.03.062-.009-.036.03.071.018.047.033.1.048.145a3.214,3.214,0,0,1,.081.335c.012.077,0-.065,0,.065,0,.05,0,.1,0,.148s0,.125-.009.187c-.012.122.024-.1-.006.021a1.679,1.679,0,0,1-.093.318c.033-.074,0-.009-.021.024-.042.062-.078.128-.123.19a.743.743,0,0,0,.27,1.015.768.768,0,0,0,1.024-.267h0Z" transform="translate(-42.781 -1.345)" fill="#00a69c"/>
    </g>
    <g id="Group_21" data-name="Group 21" transform="translate(24.012 5.66)">
      <path id="Path_142" data-name="Path 142" d="M88.026,26.083a1.52,1.52,0,0,0,.4-1.777,4.5,4.5,0,0,0-1.2-1.54,2.335,2.335,0,0,0-4.022-.095c-.347.35-.719.855-.482,1.285a1.174,1.174,0,0,0,.575.433q2.089.975,4.175,1.953" transform="translate(-81.912 -20.836)" fill="#00a69c"/>
      <path id="Path_143" data-name="Path 143" d="M86.675,24.972a2.36,2.36,0,0,0,.488-3.166,6.579,6.579,0,0,0-1.195-1.377,5.628,5.628,0,0,0-1.387-1.042,2.593,2.593,0,0,0-1.854-.214,3.73,3.73,0,0,0-1.551,1,2.8,2.8,0,0,0-.979,1.54,1.512,1.512,0,0,0,1,1.567c1.387.662,2.782,1.3,4.175,1.953a.771.771,0,0,0,1.024-.267.742.742,0,0,0-.27-1.015l-2.9-1.356c-.473-.22-.958-.424-1.423-.668-.036-.018-.075-.039-.108-.059s-.03-.033-.045-.03c-.042.012-.03-.056-.006-.006,0,.006.045.062.027.062.069.006-.126.065.009,0-.009,0,.03-.065.006-.021a1.871,1.871,0,0,1,.141-.226,4.146,4.146,0,0,1,.883-.831,1.476,1.476,0,0,1,.458-.223.824.824,0,0,1,.425,0,4.858,4.858,0,0,1,1.881,1.448,2.756,2.756,0,0,1,.4.516,1.882,1.882,0,0,1,.192.469c-.012-.071.006.05.006.053,0,.065.006.128,0,.193a.693.693,0,0,1-.006.113c.015-.119-.015.039-.021.062s-.021.071-.033.107c.039-.1-.021.036-.033.056a.606.606,0,0,1-.06.092c.1-.113-.108.077.006-.006a.744.744,0,1,0,.755,1.282h0Z" transform="translate(-80.184 -19.087)" fill="#00a69c"/>
    </g>
    <g id="Group_22" data-name="Group 22" transform="translate(46.4 26.102)">
      <path id="Path_144" data-name="Path 144" d="M157.5,91.323q1.11,2.715,2.222,5.433a3.741,3.741,0,0,0,1.842-2.193c.186-1.128-.68-2.131-1.482-2.953a4.657,4.657,0,0,0-1.09-.905,1.578,1.578,0,0,0-1.372-.11" transform="translate(-156.733 -89.74)" fill="#00a69c"/>
      <path id="Path_145" data-name="Path 145" d="M154.982,89.757q1.11,2.715,2.222,5.433a.758.758,0,0,0,1.1.442,5.612,5.612,0,0,0,1.911-1.866,2.919,2.919,0,0,0-.054-2.718,8.064,8.064,0,0,0-1.707-2.083,2.74,2.74,0,0,0-2.83-.846.765.765,0,0,0-.524.914.757.757,0,0,0,.922.519c.6-.246,1.105.2,1.518.608a6.888,6.888,0,0,1,1.282,1.555,1.384,1.384,0,0,1,.036,1.424,4.342,4.342,0,0,1-1.309,1.217l1.1.442q-1.11-2.715-2.222-5.433a.777.777,0,0,0-.922-.519.748.748,0,0,0-.524.914h0Z" transform="translate(-154.94 -87.976)" fill="#00a69c"/>
    </g>
    <g id="Group_23" data-name="Group 23" transform="translate(52.002 38.076)">
      <path id="Path_146" data-name="Path 146" d="M176.184,131.237q.975,2.6,1.947,5.2a14.406,14.406,0,0,1-2.018-4.8.894.894,0,0,1-.009-.5.549.549,0,0,1,.521-.32,1.388,1.388,0,0,1,.608.2,6.024,6.024,0,0,1,1.908,1.65,3.048,3.048,0,0,1,.713,1.8,1.467,1.467,0,0,1-1.036,1.469" transform="translate(-175.344 -130.073)" fill="#00a69c"/>
      <path id="Path_147" data-name="Path 147" d="M173.765,129.687l1.947,5.2,1.369-.573a13.817,13.817,0,0,1-1.9-4.433c-.021-.092-.036-.187-.063-.279.015.056,0-.015,0-.015v-.042c-.012.047-.027.1-.039.145a.329.329,0,0,1-.1.1c-.057.047-.111-.018.012.027a3.842,3.842,0,0,1,.9.567,4.514,4.514,0,0,1,1.384,1.7,1.385,1.385,0,0,1,.072.938c-.012.039-.024.077-.039.113.03-.071-.015.018-.027.039s-.039.068-.063.1c-.069.1.057-.056-.027.033l-.081.08c.057-.05,0,0-.027.018,0,0-.108.056-.042.03s-.123.03-.123.03a.753.753,0,0,0-.524.914.764.764,0,0,0,.922.519,2.238,2.238,0,0,0,1.572-2.418,4.712,4.712,0,0,0-1.617-2.861c-.728-.68-1.995-1.709-3.037-1.113a1.406,1.406,0,0,0-.524,1.677,15.046,15.046,0,0,0,2.072,4.884.753.753,0,0,0,.934.3.732.732,0,0,0,.434-.875q-.975-2.6-1.947-5.2a.77.77,0,0,0-.922-.519.747.747,0,0,0-.524.914h0Z" transform="translate(-173.648 -128.327)" fill="#00a69c"/>
    </g>
    <g id="Group_24" data-name="Group 24" transform="translate(3.709 35.186)">
      <path id="Path_148" data-name="Path 148" d="M23.413,122.959a6.4,6.4,0,0,1-.536,1.748,2.177,2.177,0,0,1-1.369,1.148,3.313,3.313,0,0,1-2.189-.561c-1.833-.973-3.83-2.136-4.429-4.11a12.188,12.188,0,0,1,8.966,2.163" transform="translate(-14.142 -120.314)" fill="#00a69c"/>
      <path id="Path_149" data-name="Path 149" d="M20.941,121.033c-.159.783-.326,1.92-1.156,2.3-.785.362-1.809-.392-2.468-.754-1.393-.772-2.947-1.733-3.453-3.326l-.524.914a11.512,11.512,0,0,1,8.388,2.089.744.744,0,1,0,.755-1.282,13,13,0,0,0-9.541-2.237.748.748,0,0,0-.524.914c.68,2.142,2.638,3.407,4.531,4.424,1.132.608,2.45,1.22,3.684.49a4.361,4.361,0,0,0,1.749-3.139.75.75,0,0,0-1.446-.395h0Z" transform="translate(-12.391 -118.587)" fill="#00a69c"/>
    </g>
    <g id="Group_25" data-name="Group 25" transform="translate(16.982 44.231)">
      <path id="Path_150" data-name="Path 150" d="M61.4,151.54l1.785,7.157a1.808,1.808,0,0,1,.069.881.624.624,0,0,1-.65.5c-.258-.045-.422-.294-.554-.519q-.93-1.589-1.857-3.181a7.729,7.729,0,0,1-.9-1.932,2.6,2.6,0,0,1,.246-2.059A1.626,1.626,0,0,1,61.4,151.7" transform="translate(-58.444 -150.807)" fill="#00a69c"/>
      <path id="Path_151" data-name="Path 151" d="M58.941,150l.928,3.721.464,1.861c.15.6.356,1.214.452,1.825a1.213,1.213,0,0,0,.009.24c-.021-.027.156-.021.171-.027.177-.071.093.068.075-.05a1.473,1.473,0,0,0-.228-.383l-.967-1.653a10.944,10.944,0,0,1-1.608-3.2c-.141-.748.231-2.006,1.228-1.656a.744.744,0,1,0,.4-1.433,2.47,2.47,0,0,0-3.088,1.961c-.314,1.6.557,2.988,1.33,4.312.422.721.842,1.442,1.264,2.163.362.62.749,1.415,1.6,1.4a1.436,1.436,0,0,0,1.33-1.558,11.838,11.838,0,0,0-.536-2.412q-.687-2.755-1.375-5.513a.749.749,0,0,0-1.443.395h0Z" transform="translate(-56.71 -149.069)" fill="#00a69c"/>
    </g>
    <g id="Group_26" data-name="Group 26" transform="translate(9.71 6.581)">
      <path id="Path_152" data-name="Path 152" d="M74.856,24.69Q54.677,44.221,34.84,64.1a114.9,114.9,0,0,1,9.529-15.929A78.668,78.668,0,0,1,50.164,40.9c2.357-2.59,4.938-4.97,7.526-7.335a49.98,49.98,0,0,1,7.337-5.881A17.333,17.333,0,0,1,73.9,24.868a23.459,23.459,0,0,1-7.376,5.611" transform="translate(-34.118 -23.948)" fill="#00a69c"/>
      <path id="Path_153" data-name="Path 153" d="M72.639,22.407q-7.893,7.638-15.732,15.329-7.789,7.642-15.522,15.332Q37,57.435,32.623,61.816l1.177.9A112.062,112.062,0,0,1,45.557,43.786,74.615,74.615,0,0,1,53.2,35.421c1.363-1.294,2.749-2.564,4.142-3.825,1.333-1.211,2.686-2.409,4.13-3.493,3.112-2.332,6.759-4.22,10.745-4.252l-.53-1.267a23.188,23.188,0,0,1-7.223,5.5.748.748,0,0,0-.27,1.015.769.769,0,0,0,1.024.267,24.369,24.369,0,0,0,7.529-5.727.751.751,0,0,0-.53-1.267c-7.709.065-13.587,5.964-18.831,10.837a80.911,80.911,0,0,0-7.909,8.3,103.111,103.111,0,0,0-6.7,9.359,115.852,115.852,0,0,0-6.268,11.1.75.75,0,0,0,1.177.9q7.758-7.776,15.567-15.5Q57.011,39.7,64.82,32.083q4.434-4.322,8.883-8.629c.692-.668-.368-1.718-1.06-1.05h0Z" transform="translate(-32.428 -22.19)" fill="#00a69c"/>
    </g>
    <g id="Group_27" data-name="Group 27" transform="translate(40.082 26.777)">
      <path id="Path_154" data-name="Path 154" d="M136.28,92.72l7.2,15.623q2.924,6.352,5.852,12.706" transform="translate(-135.55 -91.987)" fill="#00a69c"/>
      <path id="Path_155" data-name="Path 155" d="M133.93,91.357q5.094,11.056,10.185,22.11,1.433,3.111,2.866,6.22a.747.747,0,0,0,1.294-.748Q143.194,107.9,138.11,96.873l-2.884-6.261a.747.747,0,0,0-1.294.748h0Z" transform="translate(-133.844 -90.25)" fill="#00a69c"/>
    </g>
    <g id="Group_28" data-name="Group 28" transform="translate(41.076 26.362)">
      <path id="Path_156" data-name="Path 156" d="M139.61,91.34q2.587,5.964,5.178,11.929a69.913,69.913,0,0,0,5.106,10.2,22.685,22.685,0,0,1,1.878,3.16,5.228,5.228,0,0,1,.359,3.579" transform="translate(-138.877 -90.602)" fill="#00a69c"/>
      <path id="Path_157" data-name="Path 157" d="M137.249,89.964q2.561,5.9,5.118,11.792a69.808,69.808,0,0,0,5.388,10.68c1.114,1.7,2.558,3.688,1.938,5.825a.749.749,0,0,0,1.443.395c.593-2.056-.258-4.095-1.342-5.825s-2.186-3.424-3.118-5.249c-1.926-3.769-3.51-7.712-5.193-11.59q-1.469-3.387-2.941-6.777a.747.747,0,0,0-1.294.748h0Z" transform="translate(-137.163 -88.852)" fill="#00a69c"/>
    </g>
    <g id="Group_29" data-name="Group 29" transform="translate(1.092 2.879)">
      <path id="Path_158" data-name="Path 158" d="M34.5,26.216A269.9,269.9,0,0,0,6.13,12.16" transform="translate(-5.387 -11.435)" fill="#00a69c"/>
      <path id="Path_159" data-name="Path 159" d="M33.139,23.856Q22.421,17.74,11.173,12.616,7.988,11.169,4.77,9.8a.777.777,0,0,0-1.024.267.742.742,0,0,0,.27,1.015Q15.38,15.906,26.272,21.749q3.082,1.656,6.115,3.386a.744.744,0,0,0,.755-1.282h0Z" transform="translate(-3.65 -9.715)" fill="#00a69c"/>
    </g>
    <g id="Group_30" data-name="Group 30" transform="translate(1.323 2.622)">
      <path id="Path_160" data-name="Path 160" d="M35.967,24.913,20.649,16.955c-4.414-2.294-8.9-4.614-13.779-5.635" transform="translate(-6.137 -10.586)" fill="#00a69c"/>
      <path id="Path_161" data-name="Path 161" d="M34.63,22.533l-11.62-6.039c-3.663-1.9-7.3-3.911-11.1-5.51A36.53,36.53,0,0,0,5.359,8.865c-.94-.2-1.342,1.231-.4,1.43a45.733,45.733,0,0,1,11.1,4.27c3.8,1.926,7.568,3.92,11.347,5.884q3.234,1.682,6.472,3.362c.854.442,1.611-.837.755-1.282h0Z" transform="translate(-4.423 -8.846)" fill="#00a69c"/>
    </g>
    <g id="Group_31" data-name="Group 31">
      <path id="Path_162" data-name="Path 162" d="M51.232,38.249c-.464-.994-.889-1.988-1.387-2.944-.308-.6.018-.908.386-1.267.71-.694,1.434-1.377,2.1-2.113a2.024,2.024,0,0,0-.042-3.042c-.575-.617-1.192-1.2-1.794-1.789-1.839-1.816-2.33-1.861-4.45-.4a.922.922,0,0,1-.207-.157c-1.458-2.065-1.294-3.777.464-5.807a34.17,34.17,0,0,0,5.448-9.662c.608-1.487.857-3.012-.449-4.273s-2.824-.988-4.327-.38a43.117,43.117,0,0,0-10.742,6.077c-1.222.97-2.237,1.234-3.54.362a11.652,11.652,0,0,0-1.461-.712c1.491-2.389,1.455-2.677-.557-4.674-3.136-3.11-3.318-3.145-6.364-.012a1.831,1.831,0,0,1-2.662.427,18.018,18.018,0,0,0-2.105-.979c.5-.727,1.117-1.344,1.03-2.231a3.664,3.664,0,0,0-1.452-2.169c-3.315-3.288-3.438-3.341-6.592-.071-.955.991-1.647.665-2.564.193a8.208,8.208,0,0,0-8.9.46C-.38,4.065-.344,4.382,1.147,5.35,9.069,10.5,16.972,15.67,24.932,20.759c1.207.772,1.135,1.142.207,2.095a81.855,81.855,0,0,0-10.1,12.662,1.524,1.524,0,0,1-1.95.751c-2.219-.558-4.459-1.036-6.684-1.573a3.057,3.057,0,0,0-2.432.409q-2.367,1.464-.051,2.923C5.945,39.3,7.949,40.6,10,41.821c.716.427.88.843.383,1.5a2.2,2.2,0,0,0-.156.252c-.731,1.3-1.312,2.623-.084,3.95.919.991,2.12,1.053,3.953-.012,1.012-.588,1.494-.448,2.078.528,1.216,2.039,2.623,3.967,3.821,6.018.713,1.22,1.4,1.012,2.219.255a2.9,2.9,0,0,0,.958-2.947c-.5-2.113-.955-4.237-1.506-6.338-.293-1.11-.285-1.994.97-2.472a3.44,3.44,0,0,0,.62-.409c.32-.208.566-.5.338-.858s-.59-.261-.916-.047c-.749.49-1.506.967-2.261,1.448a81.01,81.01,0,0,1-7.14,4.039c-.47.234-.91.629-1.584.421.042-.623.575-.884.925-1.231Q24.36,34.266,36.123,22.634c.141-.139.3-.267.422-.418.29-.35.94-.68.347-1.193-.473-.409-.8.128-1.1.424q-4.142,4.082-8.269,8.172-7.785,7.7-15.573,15.415c-.38.377-.785.733-1.273,1.187-.368-.813.1-1.315.371-1.831A91.97,91.97,0,0,1,27.831,21.614c4.046-4.036,8.053-8.11,13.078-11A53.39,53.39,0,0,1,47.593,7.32c1.012-.409,2.051-.626,2.941.22.949.9.7,1.976.267,3.027a45.942,45.942,0,0,1-9.715,14.822c-2.051,2.095-4.178,4.116-6.244,6.19-.338.341-1.12.682-.53,1.288.515.528.928-.154,1.192-.469.848-1.009,1.18-.267,1.6.371Q44.9,44.536,52.7,56.3c1.168,1.763,1.429,1.774,2.584-.018a7.74,7.74,0,0,0,.305-8.43c-.713-1.282-.614-2.131.536-2.976A8.864,8.864,0,0,0,57.4,43.631a2.138,2.138,0,0,0-.033-3.285c-.575-.617-1.192-1.2-1.8-1.786-1.68-1.644-2.312-1.7-4.336-.315ZM1.462,4.258a2.214,2.214,0,0,1,2.959-.567c7.337,3.543,14.716,7,22.081,10.49,1.6.76,3.2,1.534,5.046,2.421-1.318,1.24-2.534,2.27-3.609,3.43-.683.739-1.159.724-1.974.187-5.681-3.751-11.4-7.445-17.1-11.157C6.415,7.465,3.962,5.878,1.462,4.258ZM41.547,26.649c.225.433.455.858.665,1.291,4.073,8.4,8.119,16.816,12.237,25.2a2.214,2.214,0,0,1-.494,3c-.27-.374-.509-.68-.725-1.006-4.381-6.6-8.784-13.181-13.123-19.8-.982-1.5-2.977-2.994-2.59-4.549.377-1.522,2.4-2.641,3.7-3.935A1.9,1.9,0,0,1,41.547,26.649ZM55.5,52.252c-.452-.015-.47-.32-.56-.507-4.049-8.356-8.062-16.73-12.147-25.068-.584-1.193-.012-1.644.9-2.231,3.836,8.374,7.649,16.671,11.431,24.982a4.757,4.757,0,0,1,.383,2.822ZM33.536,14.4c-.719,1.169-1.455,1.273-2.638.7-7.786-3.76-15.615-7.43-23.431-11.131-.731-.347-1.455-.712-2.18-1.068A4.739,4.739,0,0,1,8.8,3.263q8.567,3.846,17.127,7.715l7.6,3.424ZM6,35.706c1.24.285,2.692.62,4.148.95q3.8.861,1.647,4.065a.79.79,0,0,0-.075.128c-.195.5-.482.519-.916.24Q7.663,39.081,4.5,37.115c-.638-.395-.542-.712.006-1.077A2.338,2.338,0,0,1,6,35.709Zm16.217,16.27a1.571,1.571,0,0,1-.8,1.522c-.689.27-.782-.546-1.051-.935-.734-1.056-1.408-2.154-2.105-3.234q-1.983-3.077,1.237-4.792a2.722,2.722,0,0,0,.249-.16c.374-.267.626-.2.734.261q.867,3.668,1.734,7.338ZM24.093,8.955c.934-.846,1.668-1.5,2.39-2.172a1.2,1.2,0,0,1,1.836-.089c.86.816,1.7,1.65,2.516,2.5a1.052,1.052,0,0,1-.06,1.579c-.4.433-.743.908-1.491.549-1.593-.769-3.219-1.475-5.19-2.368Zm25.24,24.421c-.449.021-.494-.318-.611-.567-.578-1.255-1.1-2.537-1.74-3.76-.407-.774-.431-1.344.323-1.9a1.3,1.3,0,0,1,1.953.246c.509.543,1.063,1.039,1.584,1.567s1.318,1.012.892,1.846a11.946,11.946,0,0,1-2.4,2.564Zm5.2,12.071c-.949-2.039-1.614-3.576-2.381-5.062a1.182,1.182,0,0,1,.434-1.733,1.2,1.2,0,0,1,1.725.187q1.119,1.091,2.225,2.19a1.229,1.229,0,0,1,.024,1.938c-.659.727-1.246,1.516-2.027,2.481ZM12.5,3.753c.958-.866,1.743-1.6,2.558-2.306a1.025,1.025,0,0,1,1.482.039c.9.849,1.788,1.715,2.632,2.62a1.047,1.047,0,0,1-.111,1.579c-.377.392-.671.774-1.366.424-1.587-.792-3.228-1.475-5.193-2.356Z" transform="translate(-0.005 -0.012)"/>
      <path id="Path_163" data-name="Path 163" d="M30.548,70.243a1.271,1.271,0,0,0-.961.531Q26.941,73.382,24.307,76c-.341.341-.877.739-.305,1.208.482.395.788-.19,1.078-.475q2.709-2.648,5.391-5.326c.234-.231.6-.448.431-.858-.06-.148-.27-.24-.356-.312Z" transform="translate(-16.639 -49.401)"/>
      <path id="Path_164" data-name="Path 164" d="M99.94,152.983c.279.614.632.7,1.057.282q2.956-2.907,5.894-5.828c.27-.267.431-.593.117-.9s-.638-.1-.9.157q-2.9,2.858-5.786,5.727A3.376,3.376,0,0,0,99.94,152.983Z" transform="translate(-70.012 -102.951)"/>
      <path id="Path_165" data-name="Path 165" d="M109.389,122.12c-.27.22-.512.386-.719.59-1.446,1.421-2.89,2.843-4.321,4.279-.323.326-.916.688-.377,1.2.488.469.8-.134,1.075-.4,1.527-1.478,3.031-2.982,4.534-4.484.237-.234.557-.493.3-.878-.093-.139-.308-.2-.494-.306Z" transform="translate(-72.683 -85.886)"/>
      <path id="Path_166" data-name="Path 166" d="M50.9,75.372a1.844,1.844,0,0,0,.362.395.525.525,0,0,0,.668-.142q2.525-2.493,5.046-4.994c.231-.228.338-.5.1-.777a.487.487,0,0,0-.776-.018q-2.587,2.537-5.154,5.092a1.946,1.946,0,0,0-.243.442Z" transform="translate(-35.658 -48.987)"/>
      <path id="Path_167" data-name="Path 167" d="M20.587,47.31c-.162.047-.285.045-.344.1-1.333,1.309-2.665,2.62-3.98,3.947a.4.4,0,0,0,.075.635.505.505,0,0,0,.68,0c1.306-1.27,2.611-2.537,3.875-3.849.386-.4.072-.682-.3-.837Z" transform="translate(-11.305 -33.275)"/>
      <path id="Path_168" data-name="Path 168" d="M135.308,160.753a8.835,8.835,0,0,0-.83.6c-1.129,1.1-2.246,2.214-3.366,3.326-.288.288-.6.626-.21,1,.407.392.725,0,1-.264,1.129-1.1,2.246-2.217,3.363-3.329.213-.211.41-.436.276-.772-.072-.184-.15-.365-.234-.567Z" transform="translate(-91.574 -113.053)"/>
      <path id="Path_169" data-name="Path 169" d="M145.209,41.994a3.689,3.689,0,0,0-3.348-3.181c-.416-.039-.863-.071-.955.424-.1.537.338.6.761.647a2.7,2.7,0,0,1,2.516,2.475c.066.4.087.861.641.769.536-.089.446-.552.389-1.134Z" transform="translate(-98.698 -27.286)"/>
      <path id="Path_170" data-name="Path 170" d="M101.777,116.272c-.569.457-1.408.76-1.683,1.6a.423.423,0,0,0,.557.481,3.084,3.084,0,0,0,1.773-1.62C102.552,116.379,102.22,116.245,101.777,116.272Z" transform="translate(-70.108 -81.771)"/>
      <path id="Path_171" data-name="Path 171" d="M85.8,129.009c.006.5.279.706.575.564.734-.35,1.554-.677,1.827-1.534a.418.418,0,0,0-.56-.475A4.059,4.059,0,0,0,85.8,129.009Z" transform="translate(-60.106 -89.69)"/>
    </g>
  </g>
</svg>
