<svg id="Layer_1-2" xmlns="http://www.w3.org/2000/svg" width="54.916" height="54.947" viewBox="0 0 54.916 54.947">
  <g id="Group_41" data-name="Group 41" transform="translate(0 0)">
    <g id="Group_33" data-name="Group 33" transform="translate(11.69 31.834)">
      <path id="Path_172" data-name="Path 172" d="M45.061,105.89a9.008,9.008,0,0,1,3.37,1.984,4.015,4.015,0,0,1,1.451,2.578,3.5,3.5,0,0,1-1.73,3.025,9.46,9.46,0,0,1-3.466,1.106q-1.871.333-3.741.668l3.791.148a3.805,3.805,0,0,0-2.142.1,1.9,1.9,0,0,1-2.005-.548,2.458,2.458,0,0,1-.309-1.383,9.086,9.086,0,0,1,4.057-7.652" transform="translate(-39.504 -105.108)" fill="#fff"/>
      <path id="Path_173" data-name="Path 173" d="M43.123,104.876a8.2,8.2,0,0,1,2.779,1.562,3.549,3.549,0,0,1,1.476,2.316c.093,2.162-2.432,2.914-4.119,3.234-1.414.268-2.835.508-4.252.764-.888.16-.631,1.479.2,1.513l3.791.148c.916.037.987-1.232.2-1.512a3.927,3.927,0,0,0-2.151.018,2.165,2.165,0,0,1-1.346.031c-.4-.2-.39-.755-.393-1.137a8.236,8.236,0,0,1,.161-1.654,8.134,8.134,0,0,1,3.516-5.332c.845-.524.068-1.854-.78-1.331a9.49,9.49,0,0,0-3.834,4.87,10.047,10.047,0,0,0-.6,3.207c-.028,1.155.241,2.36,1.43,2.828a3.276,3.276,0,0,0,1.758.108,3.6,3.6,0,0,1,1.835-.12l.2-1.513-3.791-.148.2,1.512c1.417-.253,2.838-.5,4.252-.764a8.074,8.074,0,0,0,3.611-1.432,4.216,4.216,0,0,0,1.643-3.053,4.514,4.514,0,0,0-1.594-3.336,9.971,9.971,0,0,0-3.8-2.261c-.947-.311-1.355,1.177-.412,1.485h0Z" transform="translate(-37.774 -103.352)" fill="#fff"/>
    </g>
    <g id="Group_34" data-name="Group 34" transform="translate(17.88 2.887)">
      <path id="Path_174" data-name="Path 174" d="M82.045,11.849l8.693,8.45a3.9,3.9,0,0,1,1.386,2.135,3.6,3.6,0,0,1-.5,1.978,27.224,27.224,0,0,1-3.336,5.228,54.61,54.61,0,0,1-3.732,4.017q-3.166,3.188-6.335,6.373a20.792,20.792,0,0,0,7.112-6.789,32.274,32.274,0,0,1-11.162,9.716,3.579,3.579,0,0,1-2,.564,3.794,3.794,0,0,1-1.987-1.155q-4.215-3.807-8.43-7.618a4.577,4.577,0,0,1-1.337-1.657c-.52-1.377.371-2.856,1.269-4.026A59.875,59.875,0,0,1,82.6,11.84" transform="translate(-59.493 -11.082)" fill="#fff"/>
      <path id="Path_175" data-name="Path 175" d="M79.78,10.688q2.725,2.648,5.447,5.3l2.7,2.621c.616.6,1.634,1.334,1.721,2.264a2.646,2.646,0,0,1-.35,1.328c-.257.539-.538,1.069-.832,1.59a27.416,27.416,0,0,1-1.885,2.889,50.131,50.131,0,0,1-4.719,5.166l-5.9,5.942a.775.775,0,0,0,.938,1.211,21.843,21.843,0,0,0,7.39-7.067A.777.777,0,0,0,84,30.875a.792.792,0,0,0-1.058.277,31.473,31.473,0,0,1-8.458,8.025,29.173,29.173,0,0,1-2.55,1.482,2.642,2.642,0,0,1-1.343.4,2.075,2.075,0,0,1-1.108-.533c-.9-.718-1.724-1.543-2.578-2.313S65.12,36.6,64.229,35.8s-1.748-1.577-2.621-2.366c-.405-.367-.814-.727-1.213-1.1a3.678,3.678,0,0,1-.925-1.1,2.727,2.727,0,0,1,.483-2.492A21.171,21.171,0,0,1,61.707,26.4,59.121,59.121,0,0,1,81.277,10.812c.891-.444.108-1.771-.78-1.331A60.6,60.6,0,0,0,60.778,25.117c-.672.813-1.355,1.633-1.943,2.507a5.185,5.185,0,0,0-1.049,3.154A4.241,4.241,0,0,0,59.4,33.508c.938.856,1.885,1.7,2.829,2.557q2.79,2.523,5.583,5.043A4.535,4.535,0,0,0,70.595,42.6a6.711,6.711,0,0,0,3.256-1.235,33.333,33.333,0,0,0,10.432-9.439l-1.337-.776a20.173,20.173,0,0,1-6.833,6.515l.938,1.211q2.762-2.782,5.527-5.563a58.51,58.51,0,0,0,5.088-5.526,27.723,27.723,0,0,0,1.965-2.92q.45-.776.851-1.58a6.4,6.4,0,0,0,.659-1.737,3.548,3.548,0,0,0-1.148-3.074c-.873-.924-1.823-1.784-2.733-2.671q-3.189-3.1-6.381-6.2c-.712-.693-1.807.394-1.1,1.09h0Z" transform="translate(-57.775 -9.379)" fill="#fff"/>
    </g>
    <g id="Group_35" data-name="Group 35" transform="translate(26.607 35.287)">
      <path id="Path_176" data-name="Path 176" d="M88.48,117.06h1.8" transform="translate(-87.706 -116.29)" fill="#00a69c"/>
      <path id="Path_177" data-name="Path 177" d="M86.752,116.1h1.8a.81.81,0,0,0,.548-.225.755.755,0,0,0,.226-.545.786.786,0,0,0-.774-.77h-1.8a.81.81,0,0,0-.548.225.755.755,0,0,0-.226.545.786.786,0,0,0,.774.77Z" transform="translate(-85.978 -114.56)" fill="#00a69c"/>
    </g>
    <g id="Group_36" data-name="Group 36" transform="translate(16.534 25.069)">
      <path id="Path_178" data-name="Path 178" d="M57.363,83.86,55.89,87.285l7.925,7.227a3.111,3.111,0,0,0,.981.684,1.055,1.055,0,0,0,1.12-.191c.523-.561-.009-1.445-.529-2.005q-3.918-4.223-7.836-8.45" transform="translate(-55.127 -83.099)" fill="#00a69c"/>
      <path id="Path_179" data-name="Path 179" d="M54.993,81.763q-.738,1.714-1.473,3.425a.8.8,0,0,0,.121.933l4.416,4.026q1.077.98,2.151,1.962A14.96,14.96,0,0,0,62.38,94a1.946,1.946,0,0,0,2.38-.154,1.91,1.91,0,0,0,.046-2.344,14.252,14.252,0,0,0-1.829-2.1q-.993-1.072-1.987-2.141-2.3-2.477-4.6-4.956c-.678-.73-1.77.36-1.1,1.09q3.551,3.831,7.105,7.661c.418.45,1.092.977,1.238,1.608.025.108.053.12-.108.145-.2.031-.455-.179-.6-.3-.665-.542-1.278-1.161-1.912-1.737s-1.284-1.171-1.925-1.756l-4.357-3.974.121.933q.738-1.714,1.473-3.425a.793.793,0,0,0-.279-1.054.779.779,0,0,0-1.058.277h0Z" transform="translate(-53.426 -81.39)" fill="#00a69c"/>
    </g>
    <g id="Group_37" data-name="Group 37" transform="translate(10.376 15.409)">
      <path id="Path_180" data-name="Path 180" d="M42.764,59.77q2.316-3.613,4.633-7.23c-3.519,1.14-7.257,2.43-9.5,5.36a9.152,9.152,0,0,0-1.869,5.369,18.725,18.725,0,0,1,7.05-3.4" transform="translate(-35.256 -51.767)" fill="#00a69c"/>
      <path id="Path_181" data-name="Path 181" d="M41.705,58.424q2.316-3.613,4.633-7.23a.778.778,0,0,0-.873-1.131c-4.209,1.365-8.928,3.062-10.949,7.341a10.23,10.23,0,0,0-.987,4.134.785.785,0,0,0,1.321.545,18.1,18.1,0,0,1,6.706-3.207.771.771,0,0,0-.412-1.485,19.88,19.88,0,0,0-7.39,3.6l1.321.545a8.468,8.468,0,0,1,2.457-5.757,14.406,14.406,0,0,1,4.982-3.053c1.1-.437,2.231-.81,3.361-1.177L45,50.424q-2.316,3.613-4.633,7.23c-.538.838.8,1.611,1.337.776h0Z" transform="translate(-33.529 -50.03)" fill="#00a69c"/>
    </g>
    <g id="Group_38" data-name="Group 38" transform="translate(27.381 31.227)">
      <path id="Path_182" data-name="Path 182" d="M101.922,103.9A20.08,20.08,0,0,1,90.97,115.378c1.922-1.645,1.467-4.864,3.079-6.808a7.916,7.916,0,0,1,3.33-2.008l5.044-1.99" transform="translate(-90.199 -103.123)" fill="#00a69c"/>
      <path id="Path_183" data-name="Path 183" d="M99.456,101.949a19.279,19.279,0,0,1-7.461,9.346,19.854,19.854,0,0,1-3.135,1.673l.938,1.211c1.513-1.337,1.708-3.413,2.293-5.221a4.356,4.356,0,0,1,1.427-2.209,12.239,12.239,0,0,1,3.048-1.463q2.172-.855,4.345-1.713a.8.8,0,0,0,.542-.949.782.782,0,0,0-.953-.539q-1.964.772-3.924,1.546A22.266,22.266,0,0,0,93.2,105.11a5.465,5.465,0,0,0-2.2,2.421,19.5,19.5,0,0,0-.916,2.911,5.1,5.1,0,0,1-1.374,2.643.764.764,0,0,0-.062,1.01.8.8,0,0,0,1,.2,20.888,20.888,0,0,0,9.714-8.551,20.489,20.489,0,0,0,1.594-3.385.779.779,0,0,0-.542-.949.793.793,0,0,0-.953.539h0Z" transform="translate(-88.479 -101.379)" fill="#00a69c"/>
    </g>
    <g id="Group_39" data-name="Group 39" transform="translate(41.84 1.203)">
      <path id="Path_184" data-name="Path 184" d="M144.7,10.57l1.516,5.816a28.937,28.937,0,0,0,1.974-8.376,1.617,1.617,0,0,0-.282-1.3A1.685,1.685,0,0,0,146.6,6.4l-7.548.351c-.5.025-1.133.136-1.272.619-.152.518.393.952.854,1.235a24.775,24.775,0,0,1,8.154,8.2c-.195-.2-.393-.394-.588-.595" transform="translate(-136.965 -5.63)" fill="#00a69c"/>
      <path id="Path_185" data-name="Path 185" d="M142.19,9.06q.757,2.906,1.516,5.816a.788.788,0,0,0,.746.567.807.807,0,0,0,.746-.567,29.831,29.831,0,0,0,1.885-7.436c.133-1.1.421-2.637-.774-3.275a3.217,3.217,0,0,0-1.705-.237l-2,.092-4.082.191c-1.018.046-2.522-.1-3.119.933-.712,1.235.622,2.116,1.507,2.686a23.452,23.452,0,0,1,2.634,1.975,24.286,24.286,0,0,1,4.812,5.68l1.216-.933c-.195-.2-.393-.394-.588-.595a.773.773,0,0,0-1.1,1.09c.195.2.393.394.588.595a.776.776,0,0,0,1.216-.933,26.331,26.331,0,0,0-8.433-8.477,2.147,2.147,0,0,1-.464-.37c-.015-.018-.05,0-.037.022.037.077-.192,0,.062-.006a1.113,1.113,0,0,1,.183-.04,5.743,5.743,0,0,1,.746-.052l3.543-.166c1.182-.055,2.439-.139,3.658-.169.26-.006.625-.074.7.237a4.592,4.592,0,0,1-.084,1.466,28.33,28.33,0,0,1-1.863,7.313h1.492q-.757-2.906-1.516-5.816a.774.774,0,0,0-1.492.41h0Z" transform="translate(-135.199 -3.914)" fill="#00a69c"/>
    </g>
    <path id="Path_186" data-name="Path 186" d="M3.33,152.186a1.64,1.64,0,0,1,.161-.339,2.26,2.26,0,0,1,.325-.342l7.628-7.593a3.826,3.826,0,0,1,.3-.29.655.655,0,0,1,.9.006.631.631,0,0,1-.022.9c-.068.08-.145.151-.22.225q-3.89,3.872-7.78,7.741a1.7,1.7,0,0,1-.4.33.625.625,0,0,1-.9-.632Z" transform="translate(-2.299 -99.26)"/>
    <path id="Path_187" data-name="Path 187" d="M9.373,118.567a1.643,1.643,0,0,1-.145.293,2.439,2.439,0,0,1-.291.3l-7.6,7.563a3.343,3.343,0,0,1-.3.29.632.632,0,0,1-.86-.046.6.6,0,0,1-.034-.813,2.7,2.7,0,0,1,.291-.3l7.6-7.563a2.763,2.763,0,0,1,.387-.351.624.624,0,0,1,.956.632Z" transform="translate(0.001 -81.536)"/>
    <path id="Path_188" data-name="Path 188" d="M38.974,149.286a1.935,1.935,0,0,1-.155.32,1.71,1.71,0,0,1-.254.265q-3.737,3.72-7.477,7.442a2.979,2.979,0,0,1-.306.286.624.624,0,0,1-.894-.863,2.947,2.947,0,0,1,.285-.3q3.737-3.72,7.477-7.442a3.353,3.353,0,0,1,.347-.317.6.6,0,0,1,.647-.046.609.609,0,0,1,.325.659Z" transform="translate(-20.548 -102.796)"/>
    <path id="Path_189" data-name="Path 189" d="M11.849,103.274a1.539,1.539,0,0,1,.22-.363q1.8-1.807,3.611-3.6a.633.633,0,1,1,.863.909c-1.173,1.18-2.355,2.35-3.537,3.524a1.036,1.036,0,0,1-.294.213A.629.629,0,0,1,11.849,103.274Z" transform="translate(-8.181 -68.557)"/>
    <path id="Path_190" data-name="Path 190" d="M63.911,155.5a.751.751,0,0,1-.61-.367.592.592,0,0,1,.022-.644,2.228,2.228,0,0,1,.282-.311q1.393-1.391,2.788-2.775a3.014,3.014,0,0,1,.226-.219.627.627,0,0,1,.873.9,1.679,1.679,0,0,1-.145.151c-.966.961-1.931,1.928-2.9,2.883a4.354,4.354,0,0,1-.529.382Z" transform="translate(-43.653 -104.503)"/>
    <path id="Path_191" data-name="Path 191" d="M88.354,17.709l-3.68,3.105L67.041,38.521,61.17,32.563s6.192-15.84,22.059-20.713Z" transform="translate(-42.24 -8.202)" fill="#00a69c" stroke="#00a69c" stroke-miterlimit="10" stroke-width="1"/>
    <path id="Path_192" data-name="Path 192" d="M92.68,80.865a2.257,2.257,0,0,1-1.306,1.408.58.58,0,0,1-.573-.293.571.571,0,0,1,.034-.687,9.182,9.182,0,0,1,.848-.85.578.578,0,0,1,.687-.046.544.544,0,0,1,.309.465Z" transform="translate(-62.633 -55.57)"/>
    <path id="Path_193" data-name="Path 193" d="M50.934,37.67c-.665.262-1.247.505-1.838.718-.693.25-1.4.462-2.092.709a.773.773,0,0,1-.9-.225c-.288-.3-.582-.6-.907-.943-.121.179-.21.3-.291.425a10.236,10.236,0,0,1-7.563,4.873,30.663,30.663,0,0,1-3.84.1.544.544,0,0,1-.622-.573,21.9,21.9,0,0,1,.192-4.547,10.353,10.353,0,0,1,4.8-6.8l.443-.283a7.9,7.9,0,0,0-.758-.752,1.171,1.171,0,0,1-.371-1.565c.418-1.017.774-2.061,1.157-3.09.068-.179.142-.354.235-.588-.173.022-.306.025-.436.052a9.2,9.2,0,0,0-5.719,3.992c-.077.117-.142.24-.229.351a.616.616,0,0,1-.73.265.629.629,0,0,1-.433-.65,12.013,12.013,0,0,1,.1-1.2,15.973,15.973,0,0,1,11.11-13.255,14.965,14.965,0,0,1,3.246-.644,1.111,1.111,0,0,0,.792-.419,47.529,47.529,0,0,1,8.86-7.633A37.522,37.522,0,0,1,65.9.948a23.818,23.818,0,0,1,8.018-.89c.508.034,1.012.1,1.516.182.47.077.588.209.668.672a18.137,18.137,0,0,1,.145,4.756,32.725,32.725,0,0,1-5.31,14.484,46.857,46.857,0,0,1-8.3,9.787,1.071,1.071,0,0,0-.378.755A15.885,15.885,0,0,1,50.145,44.672c-.947.234-1.937.3-2.909.45a.963.963,0,0,1-.21.006.642.642,0,0,1-.594-.441.558.558,0,0,1,.235-.69,11.572,11.572,0,0,0,1.9-1.8,8.989,8.989,0,0,0,2.293-4.128c.025-.1.034-.2.065-.4ZM61.874,3.724a43.249,43.249,0,0,0-13,9.02,43.872,43.872,0,0,0-8.513,11.623L51.866,35.822A44.46,44.46,0,0,0,64.244,26.63,42.642,42.642,0,0,0,72.606,14.4L61.877,3.724Zm1.467-.6c3.3,3.284,6.567,6.54,9.866,9.824A23.56,23.56,0,0,0,74.921,1.426a23.833,23.833,0,0,0-11.58,1.7ZM39.2,32.126c-.118.062-.291.142-.455.237a9.388,9.388,0,0,0-3.231,3.093,10.215,10.215,0,0,0-1.362,6.491c0,.028.037.055.09.132.576,0,1.188.018,1.8,0a9.152,9.152,0,0,0,7.768-4.368c.149-.228.263-.481.353-.641-1.677-1.67-3.3-3.287-4.961-4.938Zm11.231,4.35Q45.062,31.129,39.707,25.8c-.043.089-.124.222-.179.363-.35.912-.678,1.836-1.049,2.739a.651.651,0,0,0,.217.813q3.922,3.881,7.823,7.778c.111.111.229.213.353.323A27.754,27.754,0,0,0,50.433,36.475Zm10.386-4.913a1.565,1.565,0,0,0-.186.108,43.434,43.434,0,0,1-8.021,5.187.567.567,0,0,0-.322.49A10.261,10.261,0,0,1,49.362,43.2c-.1.1-.192.219-.328.376A14.456,14.456,0,0,0,60.815,31.562Zm-28.1-4.784.34-.3a10.366,10.366,0,0,1,5.815-2.7.672.672,0,0,0,.582-.425A43.39,43.39,0,0,1,44.318,15.9c.1-.117.179-.246.269-.37A13.6,13.6,0,0,0,37.154,19a13.752,13.752,0,0,0-4.435,7.775Z" transform="translate(-21.426 -0.008)"/>
    <g id="Group_40" data-name="Group 40" transform="translate(34.492 11.792)">
      <path id="Path_194" data-name="Path 194" d="M119.784,41.338q-2.437,2.685-4.877,5.366a2.775,2.775,0,0,1-.845-3.08,4.071,4.071,0,0,1,5.069-2.7" transform="translate(-113.157 -39.991)" fill="#fff"/>
      <path id="Path_195" data-name="Path 195" d="M117.539,39.092q-2.437,2.685-4.877,5.366l.938-.12c.087.062-.1-.083-.118-.1a1.574,1.574,0,0,0-.121-.123,2.786,2.786,0,0,1-.22-.385c.05.114-.031-.1-.034-.108-.025-.077-.043-.151-.062-.228,0-.015-.046-.24-.028-.111a2.089,2.089,0,0,1-.019-.24,2.153,2.153,0,0,1,.111-.909,3.021,3.021,0,0,1,.433-.887,3.356,3.356,0,0,1,3.683-1.281.771.771,0,0,0,.412-1.485,4.922,4.922,0,0,0-5.481,2.061,3.779,3.779,0,0,0,.656,5.132.781.781,0,0,0,.938-.12q2.437-2.685,4.877-5.366a.773.773,0,1,0-1.1-1.09h0Z" transform="translate(-111.457 -38.288)" fill="#fff"/>
    </g>
    <path id="Path_196" data-name="Path 196" d="M101.257,70.474a1.062,1.062,0,0,1-.173.339q-.784.813-1.6,1.593a.617.617,0,0,1-.774.1.594.594,0,0,1-.173-.906c.548-.588,1.126-1.149,1.708-1.707a.574.574,0,0,1,.69-.065.623.623,0,0,1,.322.641Z" transform="translate(-67.946 -48.264)"/>
    <path id="Path_197" data-name="Path 197" d="M85.629,89.152a.606.606,0,0,1-.619-.631.983.983,0,0,1,.808-.832.649.649,0,0,1,.656.61.976.976,0,0,1-.845.85Z" transform="translate(-58.702 -60.679)"/>
    <path id="Path_198" data-name="Path 198" d="M124.672,45.44s.755,4.374-4.6,5.194a3.788,3.788,0,0,0,3.983-.342A3.479,3.479,0,0,0,124.672,45.44Z" transform="translate(-82.912 -31.445)" fill="#00a69c" stroke="#00a69c" stroke-miterlimit="10" stroke-width="1"/>
    <path id="Path_199" data-name="Path 199" d="M109.61,40.849a4.936,4.936,0,1,1,4.933,4.9A4.934,4.934,0,0,1,109.61,40.849Zm1.266-.015a3.672,3.672,0,1,0,3.7-3.653,3.677,3.677,0,0,0-3.7,3.653Z" transform="translate(-75.689 -24.857)"/>
    <path id="Path_200" data-name="Path 200" d="M53.505,111.076l-2.6-2.446s-5.165,1.861-4.45,7.2a7.3,7.3,0,0,0,7.047-4.756" transform="translate(-32.034 -75.17)" fill="#00a69c" stroke="#00a69c" stroke-miterlimit="10" stroke-width="1"/>
  </g>
</svg>
