<svg xmlns="http://www.w3.org/2000/svg" width="10.279" height="10.216" viewBox="0 0 10.279 10.216">
  <path id="__TEMP__SVG__" d="M5.139,10.216a5.068,5.068,0,0,1-2-.4A5.149,5.149,0,0,1,1.5,8.725,5.114,5.114,0,0,1,.407,7.093a5.05,5.05,0,0,1,0-3.971A5.114,5.114,0,0,1,1.5,1.492,5.149,5.149,0,0,1,3.142.4a5.139,5.139,0,0,1,4,0A5.149,5.149,0,0,1,8.778,1.492,5.114,5.114,0,0,1,9.872,3.123a5.05,5.05,0,0,1,0,3.971A5.114,5.114,0,0,1,8.778,8.725,5.149,5.149,0,0,1,7.137,9.812a5.068,5.068,0,0,1-2,.4Zm2.57-7.024a.64.64,0,0,0-.642-.639H3.212a.619.619,0,0,0-.452.19.612.612,0,0,0-.191.449v.639H3.714a1.91,1.91,0,0,1,2.851,0H7.709ZM3.855,5.108a1.227,1.227,0,0,0,.376.9,1.29,1.29,0,0,0,1.817,0,1.272,1.272,0,0,0,0-1.806,1.29,1.29,0,0,0-1.817,0A1.227,1.227,0,0,0,3.855,5.108ZM7.709,4.47H6.946A1.9,1.9,0,0,1,5.139,7.024a1.863,1.863,0,0,1-1.365-.559,1.866,1.866,0,0,1-.442-2H2.57V7.024a.632.632,0,0,0,.642.639H7.067a.623.623,0,0,0,.457-.184.614.614,0,0,0,.186-.454Z" transform="translate(0 0)"/>
</svg>
