<svg xmlns="http://www.w3.org/2000/svg" width="11.372" height="10.948" viewBox="0 0 11.372 10.948">
  <path id="phone" d="M13.424,14.323H13.35c-8.591-.476-9.811-7.458-9.982-9.588a1.233,1.233,0,0,1,.31-.921,1.329,1.329,0,0,1,.9-.439H6.984a.875.875,0,0,1,.813.53L8.462,5.48a.82.82,0,0,1-.192.91L7.338,7.3a4.023,4.023,0,0,0,3.314,3.2L11.6,9.59a.9.9,0,0,1,.949-.173l1.648.636a.842.842,0,0,1,.538.783V13.06A1.288,1.288,0,0,1,13.424,14.323ZM4.68,4.217a.429.429,0,0,0-.437.421v.034c.2,2.493,1.491,8.388,9.155,8.809a.448.448,0,0,0,.317-.105.415.415,0,0,0,.147-.291V10.837L12.214,10.2l-1.255,1.2-.21-.025a4.966,4.966,0,0,1-4.32-4.16l-.026-.2L7.645,5.8,6.989,4.217Z" transform="translate(-3.364 -3.375)" fill="#1fc2bb"/>
</svg>
