<svg xmlns="http://www.w3.org/2000/svg" width="10.279" height="10.279" viewBox="0 0 10.279 10.279">
  <path id="circletwitter" d="M5.139,10.279a5.042,5.042,0,0,1-2-.407A5.029,5.029,0,0,1,.407,7.137a5.11,5.11,0,0,1,0-4A5.029,5.029,0,0,1,3.142.407a5.11,5.11,0,0,1,4,0A5.029,5.029,0,0,1,9.872,3.142a5.11,5.11,0,0,1,0,4A5.029,5.029,0,0,1,7.137,9.872a5.042,5.042,0,0,1-2,.407ZM8.161,2.57a1.856,1.856,0,0,0-.181.11l-.2.13-.186.1-.211.07a1.183,1.183,0,0,0-.913-.411Q5.3,2.57,5.3,3.554v.592a3.175,3.175,0,0,1-2.48-1.184.811.811,0,0,0-.251.572,1.144,1.144,0,0,0,.492,1q-.06,0-.171.01a.761.761,0,0,1-.176,0A.5.5,0,0,1,2.57,4.5a1.187,1.187,0,0,0,.246.768,1.133,1.133,0,0,0,.678.4.346.346,0,0,1-.281.12.455.455,0,0,1-.281-.09.67.67,0,0,0,.376.607,1.751,1.751,0,0,0,.848.226,1.088,1.088,0,0,1-.527.407,2,2,0,0,1-.738.135A1.51,1.51,0,0,1,2.5,7q-.246-.07-.256-.07a1.312,1.312,0,0,0,.658.552,2.99,2.99,0,0,0,1.26.231,3.312,3.312,0,0,0,1.255-.236,3.121,3.121,0,0,0,.994-.627,4.122,4.122,0,0,0,.708-.893,4.177,4.177,0,0,0,.442-1.039,4.058,4.058,0,0,0,.145-1.059q0-.02.12-.085a3.239,3.239,0,0,0,.281-.176.888.888,0,0,0,.241-.231q-.542,0-.723.02a1.349,1.349,0,0,0,.532-.813Z" transform="translate(0 0)"/>
</svg>
