<svg id="Layer_1-2" xmlns="http://www.w3.org/2000/svg" width="41.178" height="41.509" viewBox="0 0 41.178 41.509">
  <g id="Group_8" data-name="Group 8" transform="translate(0 0)">
    <path id="Path_99" data-name="Path 99" d="M41.6,29.005v.76c0,2.049-.616,2.66-2.631,2.722-.322.01-.871.2-.9.38a1.372,1.372,0,0,0,.361,1.005c1.313,1.433,1.327,2.381-.024,3.737-.467.471-.928.948-1.409,1.409a2.1,2.1,0,0,1-3.251-.029c-.135-.135-.245-.322-.4-.394-.25-.115-.592-.279-.789-.188a1.128,1.128,0,0,0-.423.717,6.838,6.838,0,0,0-.029.948,1.959,1.959,0,0,1-1.89,1.89q-1.515.072-3.03,0A1.966,1.966,0,0,1,25.261,40a6.187,6.187,0,0,0-.034-1.039,1,1,0,0,0-.476-.587.78.78,0,0,0-.635.144,7.26,7.26,0,0,0-.683.654,2.048,2.048,0,0,1-2.905,0c-.649-.6-1.27-1.231-1.881-1.876a2.071,2.071,0,0,1,.014-3.117,7.927,7.927,0,0,0,.587-.62.636.636,0,0,0-.462-1.077c-.341-.038-.7,0-1.039-.019a1.993,1.993,0,0,1-1.972-2.015c-.034-.919-.024-1.837,0-2.756a2,2,0,0,1,2.068-2.116,4.7,4.7,0,0,0,.943-.038.987.987,0,0,0,.582-.481.826.826,0,0,0-.173-.645c-.2-.279-.5-.486-.717-.755a2.013,2.013,0,0,1,.043-2.766c.616-.678,1.275-1.323,1.938-1.953a2.03,2.03,0,0,1,3.035-.014c.164.149.293.361.481.452.269.135.649.332.856.236s.322-.51.414-.8a2.533,2.533,0,0,0,.014-.664,2,2,0,0,1,2.006-2.083,25.474,25.474,0,0,1,2.843,0,2.011,2.011,0,0,1,2.006,2.179,3.337,3.337,0,0,0,.029.851,1.007,1.007,0,0,0,.471.582.828.828,0,0,0,.645-.154,7.918,7.918,0,0,0,.688-.649,2.017,2.017,0,0,1,2.9,0c.673.62,1.318,1.275,1.943,1.948a2.047,2.047,0,0,1-.01,2.977,4.152,4.152,0,0,0-.587.616,1.067,1.067,0,0,0-.154.731.757.757,0,0,0,.534.4A3.214,3.214,0,0,1,41.6,29.01ZM20.562,27.572H17.811v2.881c.8,0,1.549-.034,2.294.019a.934.934,0,0,1,.683.418c.409.914.746,1.866,1.2,3.049-.625.51-1.356,1.106-1.914,1.563.7.837,1.279,1.53,2,2.4.693-.813,1.3-1.53,1.818-2.136,1.063.423,1.958.741,2.809,1.14a1.049,1.049,0,0,1,.5.731c.067.746.024,1.5.024,2.261h2.915c0-.8-.034-1.52.019-2.241a.968.968,0,0,1,.385-.717c.914-.414,1.861-.746,3.073-1.217.481.6,1.073,1.337,1.674,2.087.75-.8,1.366-1.462,2.121-2.275-.673-.558-1.4-1.154-2.044-1.683.524-1.246.962-2.289,1.448-3.449h2.727V27.543H36.819c-.438-.976-.861-1.857-1.212-2.766a.943.943,0,0,1,.154-.789c.524-.572,1.121-1.087,1.616-1.554l-2.1-2.294c-.635.77-1.231,1.5-1.751,2.131-1.121-.442-2.039-.774-2.924-1.178a.929.929,0,0,1-.442-.654c-.053-.779-.019-1.558-.019-2.366H27.3a3.382,3.382,0,0,0-.063.861c.269,1.457-.149,2.414-1.746,2.636a1.983,1.983,0,0,0-.842.418c-.457.332-.784.226-1.121-.188-.447-.563-.933-1.1-1.376-1.611-.847.808-1.5,1.438-2.309,2.212.76.654,1.472,1.27,2.121,1.833-.486,1.159-.914,2.174-1.4,3.338Z" transform="translate(-8.179 -8.311)" fill="#00a69c" stroke="#00a69c" stroke-miterlimit="10" stroke-width="1"/>
    <path id="Path_100" data-name="Path 100" d="M17.184,2.234c-.2-.183-.284-.269-.385-.346A.984.984,0,0,1,16.491.406C16.944-.2,17.521-.06,18.074.339c1.024.741,2.054,1.467,3.184,2.275-.837,1.164-1.611,2.342-2.506,3.425a1.242,1.242,0,0,1-1.212.192c-.279-.178-.332-.77-.394-1.2-.024-.173.192-.38.38-.721-.418.115-.717.168-.991.274A16.955,16.955,0,0,0,5.328,18.462c-.164,1-.534,1.467-1.222,1.313-.948-.212-.871-.943-.746-1.659C4.7,10.314,9.075,5.081,16.554,2.484c.178-.063.346-.139.625-.25Z" transform="translate(-1.709 0.005)" fill="#00a69c"/>
    <path id="Path_101" data-name="Path 101" d="M61.623,21.626c-1.154-.818-2.2-1.568-3.256-2.318a.986.986,0,0,1-.385-1.462.943.943,0,0,1,1.409-.25c.13.077.265.139.529.284a16.314,16.314,0,0,0-3.93-6.955,16.979,16.979,0,0,0-10.226-5.3,1.826,1.826,0,0,1-1.226-.789c-.346-.7.313-1.3,1.27-1.193a17.985,17.985,0,0,1,6.815,2.16A18.961,18.961,0,0,1,61.7,16.792c.058.178.115.361.183.539.019.053.077.1.154.178.515-.568,1.053-1.323,1.857-.572s.077,1.376-.341,1.982c-.611.88-1.241,1.751-1.929,2.713Z" transform="translate(-23.071 -1.884)" fill="#00a69c"/>
    <path id="Path_102" data-name="Path 102" d="M48.675,62.589c.168.13.313.245.462.361a.974.974,0,0,1,.269,1.419.934.934,0,0,1-1.419.2c-1.111-.77-2.208-1.563-3.357-2.386.784-1.106,1.53-2.164,2.275-3.218.366-.515.822-.837,1.443-.462s.6.9.289,1.481a1.587,1.587,0,0,0-.067.351,16.437,16.437,0,0,0,7.239-4.391,16.859,16.859,0,0,0,4.738-9.721c.1-.717.245-1.356,1.13-1.337.693.014,1.01.625.847,1.6q-1.984,11.919-13.4,15.79a3.7,3.7,0,0,0-.346.135C48.752,62.421,48.747,62.464,48.675,62.589Z" transform="translate(-23.166 -23.296)" fill="#00a69c"/>
    <path id="Path_103" data-name="Path 103" d="M2.1,49.113c-.212.231-.332.491-.5.529-.442.1-1.058.3-1.313.091a1.326,1.326,0,0,1-.192-1.284c.693-1.164,1.53-2.237,2.371-3.429,1.164.832,2.328,1.587,3.381,2.477a1.373,1.373,0,0,1,.207,1.289c-.12.255-.774.279-1.2.341-.149.019-.327-.164-.712-.375.159.51.245.847.37,1.164a16.966,16.966,0,0,0,13.766,11.1,2.692,2.692,0,0,0,.284.034c.664.058,1.1.385,1.029,1.092-.072.77-.606.957-1.3.871A19.061,19.061,0,0,1,2.412,49.964c-.087-.265-.188-.519-.308-.856Z" transform="translate(-0.005 -23.364)" fill="#00a69c"/>
    <path id="Path_104" data-name="Path 104" d="M42.173,36.719a5.846,5.846,0,1,1-11.693.014,5.849,5.849,0,0,1,11.7-.014ZM40.167,36.7a3.841,3.841,0,1,0-3.824,3.886A3.844,3.844,0,0,0,40.167,36.7Z" transform="translate(-15.822 -16.025)" fill="#00a69c"/>
  </g>
</svg>
