<svg xmlns="http://www.w3.org/2000/svg" width="41.997" height="43.396" viewBox="0 0 41.997 43.396">
  <path id="Path_262" data-name="Path 262" d="M0,12.116C-.019,4.958.17,4.727,7.8,2.575c1.418-.4,2.841-.792,4.255-1.2a29.38,29.38,0,0,1,16.66-.321c3.26.938,6.534,1.815,9.794,2.749a3.955,3.955,0,0,1,3.179,3.5c1.54,13.422-2.571,24.919-14.756,33.283-5.385,3.694-6.209,3.865-12.194-.248C4.475,33.288.107,23.556,0,12.116Zm38.882.69c0-1.206.009-2.416,0-3.621,0-.333-.1-.666-.131-1-.081-1.064-.7-1.632-1.824-2.014C27.5,2.961,18.055,1.207,8.361,5.3A11.31,11.31,0,0,1,5.8,5.989,2.745,2.745,0,0,0,3.182,8.746c-1.1,11.916,2.724,22.017,13.463,29.5,4.161,2.9,4.584,2.878,8.713.02,9.253-6.406,13.621-15.005,13.517-25.463Z" transform="translate(0.002 0.005)" fill="#1fc2bb"/>
</svg>
