<svg id="Layer_1-2" xmlns="http://www.w3.org/2000/svg" width="40.472" height="38.578" viewBox="0 0 40.472 38.578">
  <g id="Group_68" data-name="Group 68" transform="translate(0 0)">
    <path id="Path_219" data-name="Path 219" d="M40.464,21.034c0,5.138.03,10.279-.034,15.417a7.255,7.255,0,0,1-.731,2.129,8.38,8.38,0,0,1-2.035-1.046c-1.879-1.754-3.713-3.562-5.46-5.445a5.113,5.113,0,0,0-4.134-1.743c-7.339.076-14.678.038-22.018.03-4.16,0-6.017-1.807-6.032-5.9q-.034-9.395,0-18.8C.039,1.923,1.953.024,5.719.017Q20.3-.012,34.89.017c3.615.008,5.536,1.929,5.562,5.6C40.494,10.755,40.464,15.9,40.464,21.034ZM37.5,34.39c.2-.144.4-.288.6-.428,0-9.59.034-19.18-.027-28.77-.011-1.872-1.171-2.7-3.334-2.7q-14.407-.017-28.819,0c-2.705,0-3.554.883-3.562,3.649q-.023,9.031,0,18.066c.008,2.849.864,3.694,3.713,3.7,7.157.011,14.315.076,21.472-.034,2.709-.042,4.907.648,6.631,2.792,1.042,1.3,2.209,2.489,3.323,3.728Z" transform="translate(-0.003 -0.002)" fill="#00a69c"/>
    <path id="Path_220" data-name="Path 220" d="M25.014,36.554a2.283,2.283,0,0,1-2.448,2.031A2.328,2.328,0,0,1,20.2,36.028a2.277,2.277,0,0,1,2.539-2.2,2.421,2.421,0,0,1,2.281,2.724Z" transform="translate(-12.538 -21.013)" fill="#00a69c"/>
    <path id="Path_221" data-name="Path 221" d="M49.427,33.71c1.409.189,2.387.856,2.414,2.368a2.237,2.237,0,0,1-2.3,2.429,2.337,2.337,0,0,1-2.52-2.414c.064-1.512,1.008-2.182,2.406-2.383Z" transform="translate(-29.202 -20.938)" fill="#00a69c"/>
    <path id="Path_222" data-name="Path 222" d="M76.3,38.616c-1.406-.186-2.357-.849-2.436-2.357a2.337,2.337,0,0,1,2.493-2.44,2.243,2.243,0,0,1,2.33,2.406C78.677,37.733,77.7,38.415,76.3,38.616Z" transform="translate(-45.877 -21.002)" fill="#00a69c"/>
  </g>
</svg>
